<svg width="257" height="285" viewBox="0 0 257 285" fill="none" xmlns="http://www.w3.org/2000/svg">
<rect x="100" y="265" width="57" height="20" fill="#D9D9D9"/>
<path d="M257 185C257 198.132 254.413 211.136 249.388 223.268C244.362 235.401 236.997 246.425 227.711 255.711C218.425 264.997 207.401 272.362 195.268 277.388C183.136 282.413 170.132 285 157 285L157 265C167.506 265 177.909 262.931 187.615 258.91C197.321 254.89 206.14 248.997 213.569 241.569C220.997 234.14 226.89 225.321 230.91 215.615C234.931 205.909 237 195.506 237 185H257Z" fill="#D9D9D9"/>
<path d="M0 185C0 198.132 2.58658 211.136 7.61205 223.268C12.6375 235.401 20.0035 246.425 29.2893 255.711C38.5752 264.997 49.5991 272.362 61.7317 277.388C73.8642 282.413 86.8678 285 100 285L100 265C89.4943 265 79.0914 262.931 69.3853 258.91C59.6793 254.89 50.8601 248.997 43.4315 241.569C36.0028 234.14 30.11 225.321 26.0896 215.615C22.0693 205.909 20 195.506 20 185H0Z" fill="#D9D9D9"/>
<rect width="20" height="185" fill="#D9D9D9"/>
<rect x="237" width="20" height="185" fill="#D9D9D9"/>
</svg>
