<svg width="257" height="200" viewBox="0 0 257 200" fill="none" xmlns="http://www.w3.org/2000/svg">
<rect x="106" y="77" width="6.85" height="34" fill="#D9D9D9"/>
<path d="M129 51.0001C125.98 51.0001 122.989 51.6877 120.198 53.0236C117.408 54.3594 114.872 56.3174 112.737 58.7858C110.601 61.2542 108.907 64.1845 107.751 67.4096C106.595 70.6347 106 74.0913 106 77.5821L112.9 77.5821C112.9 75.1385 113.316 72.7189 114.126 70.4614C114.935 68.2038 116.121 66.1526 117.616 64.4247C119.111 62.6968 120.885 61.3262 122.839 60.3911C124.792 59.456 126.886 58.9747 129 58.9747L129 51.0001Z" fill="#D9D9D9"/>
<path d="M129 137.164C125.98 137.164 122.989 136.476 120.198 135.14C117.408 133.805 114.872 131.847 112.737 129.378C110.601 126.91 108.907 123.98 107.751 120.754C106.595 117.529 106 114.073 106 110.582L112.9 110.582C112.9 113.026 113.316 115.445 114.126 117.703C114.935 119.96 116.121 122.012 117.616 123.739C119.111 125.467 120.885 126.838 122.839 127.773C124.792 128.708 126.886 129.189 129 129.189L129 137.164Z" fill="#D9D9D9"/>
<rect x="100" width="24" height="20" fill="#D9D9D9"/>
<rect x="124" y="134" width="5" height="60" fill="#D9D9D9"/>
<rect x="124" width="5" height="55" fill="#D9D9D9"/>
<path d="M128.5 194C111.625 194 94.9155 192.707 79.3252 190.194C63.7348 187.681 49.5691 183.998 37.6368 179.355C25.7044 174.712 16.2392 169.2 9.78147 163.134C3.32374 157.068 -5.49852e-06 150.566 0 144L19.9946 144C19.9946 149.544 22.8012 155.035 28.2541 160.157C33.707 165.279 41.6994 169.934 51.7751 173.854C61.8507 177.775 73.8123 180.884 86.9768 183.006C100.141 185.128 114.251 186.22 128.5 186.22L128.5 194Z" fill="#D9D9D9"/>
<rect y="100" width="20" height="44" fill="#D9D9D9"/>
<path d="M0 100C0 86.8678 2.58658 73.8642 7.61205 61.7317C12.6375 49.5991 20.0035 38.5752 29.2893 29.2893C38.5752 20.0035 49.5991 12.6375 61.7317 7.61205C73.8642 2.58658 86.8678 -5.74026e-07 100 0L100 20C89.4943 20 79.0914 22.0693 69.3853 26.0896C59.6793 30.11 50.8601 36.0028 43.4315 43.4315C36.0028 50.8601 30.11 59.6793 26.0896 69.3853C22.0693 79.0914 20 89.4943 20 100H0Z" fill="#D9D9D9"/>
</svg>
