<svg width="257" height="200" viewBox="0 0 257 200" fill="none" xmlns="http://www.w3.org/2000/svg">
<rect width="6.85" height="34" transform="matrix(-1 0 0 1 151 77)" fill="#D9D9D9"/>
<path d="M128 51.0001C131.02 51.0001 134.011 51.6877 136.802 53.0236C139.592 54.3594 142.128 56.3174 144.263 58.7858C146.399 61.2542 148.093 64.1845 149.249 67.4096C150.405 70.6347 151 74.0913 151 77.5821L144.1 77.5821C144.1 75.1385 143.684 72.7189 142.874 70.4614C142.065 68.2038 140.879 66.1526 139.384 64.4247C137.889 62.6968 136.115 61.3262 134.161 60.3911C132.208 59.456 130.114 58.9747 128 58.9747L128 51.0001Z" fill="#D9D9D9"/>
<path d="M128 137.164C131.02 137.164 134.011 136.476 136.802 135.14C139.592 133.805 142.128 131.847 144.263 129.378C146.399 126.91 148.093 123.98 149.249 120.754C150.405 117.529 151 114.073 151 110.582L144.1 110.582C144.1 113.026 143.684 115.445 142.874 117.703C142.065 119.96 140.879 122.012 139.384 123.739C137.889 125.467 136.115 126.838 134.161 127.773C132.208 128.708 130.114 129.189 128 129.189L128 137.164Z" fill="#D9D9D9"/>
<rect width="24" height="20" transform="matrix(-1 0 0 1 157 0)" fill="#D9D9D9"/>
<rect width="5" height="60" transform="matrix(-1 0 0 1 133 134)" fill="#D9D9D9"/>
<rect width="5" height="55" transform="matrix(-1 0 0 1 133 0)" fill="#D9D9D9"/>
<path d="M128.5 194C145.375 194 162.084 192.707 177.675 190.194C193.265 187.681 207.431 183.998 219.363 179.355C231.296 174.712 240.761 169.2 247.219 163.134C253.676 157.068 257 150.566 257 144L237.005 144C237.005 149.544 234.199 155.035 228.746 160.157C223.293 165.279 215.301 169.934 205.225 173.854C195.149 177.775 183.188 180.884 170.023 183.006C156.859 185.128 142.749 186.22 128.5 186.22L128.5 194Z" fill="#D9D9D9"/>
<rect width="20" height="44" transform="matrix(-1 0 0 1 257 100)" fill="#D9D9D9"/>
<path d="M257 100C257 86.8678 254.413 73.8642 249.388 61.7317C244.362 49.5991 236.997 38.5752 227.711 29.2893C218.425 20.0035 207.401 12.6375 195.268 7.61205C183.136 2.58658 170.132 -5.74026e-07 157 0L157 20C167.506 20 177.909 22.0693 187.615 26.0896C197.321 30.11 206.14 36.0028 213.569 43.4315C220.997 50.8601 226.89 59.6793 230.91 69.3853C234.931 79.0914 237 89.4943 237 100H257Z" fill="#D9D9D9"/>
</svg>
