<svg width="678" height="446" viewBox="0 0 678 446" fill="none" xmlns="http://www.w3.org/2000/svg">
<path d="M339.555 287.5H221.054L206.554 285H191.054L173.054 291.5L158.554 305.5L150.554 316.5L116.554 404L103.554 433.5L94.5545 444L60.5545 438L44.5545 436L34.5545 429.5L21.5545 416.5L10.0545 393.5L3.5545 356C2.5545 346.166 0.654496 326.6 1.0545 327C1.4545 327.4 1.22116 307.5 1.0545 297.5L5.55444 246L18.5544 178L36.5544 114L56.5544 64.4995C62.2211 53.1662 73.9 30.9995 73.5 30.9995C73.1 30.9995 82.1667 27.3328 85.5 26.4995L97 23.4995L113 19.4995L166.5 10.9995L225.054 5.49951C241.054 4.49951 273.054 2.49951 273.054 2.49951L339.054 0.999512" stroke="black" stroke-width="2"/>
<path d="M338 287.5H456.656L471.175 285H486.695L504.719 291.5L519.238 305.5L527.249 316.5L561.293 404L574.311 433.5L583.322 444L617.367 438L633.388 436L643.401 429.5L656.418 416.5L667.934 393.5L674.442 356C675.443 346.166 677.346 326.6 676.945 327C676.545 327.4 676.779 307.5 676.945 297.5L672.44 246L659.422 178L641.399 114L621.372 64.4995C615.698 53.1662 604.004 30.9995 604.405 30.9995C604.805 30.9995 595.727 27.3328 592.389 26.4995L580.874 23.4995L564.853 19.4995L511.282 10.9995L452.651 5.49951C436.63 4.49951 404.588 2.49951 404.588 2.49951L338.501 0.999512" stroke="black" stroke-width="2"/>
</svg>
