<svg version="1.1" id="Layer_1" xmlns="http://www.w3.org/2000/svg" xmlns:xlink="http://www.w3.org/1999/xlink" x="0px" y="0px"
	 width="100%" viewBox="0 0 224 224" enable-background="new 0 0 224 224" xml:space="preserve">
<path fill="#010000" opacity="1.000000" stroke="none" 
	d="
M198.000000,225.000000 
	C132.000000,225.000000 66.500008,225.000000 1.000009,225.000000 
	C1.000006,150.333344 1.000006,75.666687 1.000003,1.000019 
	C75.666649,1.000013 150.333298,1.000013 224.999969,1.000006 
	C224.999969,75.666649 224.999969,150.333298 224.999985,224.999969 
	C216.166672,225.000000 207.333328,225.000000 198.000000,225.000000 
M102.595894,115.754601 
	C101.905502,119.907036 101.215111,124.059471 100.465073,128.570602 
	C105.305641,128.570602 109.446793,128.570679 113.587944,128.570572 
	C121.306641,128.570374 121.306641,128.570343 120.968239,120.340385 
	C117.545288,120.340385 114.094048,120.340385 110.296867,120.340385 
	C111.555305,112.946976 112.740677,105.982788 113.926941,99.013367 
	C105.845444,97.993904 105.860970,97.996994 104.412498,105.279526 
	C103.773613,108.491730 103.057182,111.688507 101.706268,114.347076 
	C101.667587,101.943085 95.774803,96.269058 77.275230,99.098991 
	C75.574318,108.731392 73.859299,118.443665 72.049561,128.692352 
	C75.845543,128.692352 78.979942,128.719193 82.113747,128.687424 
	C92.362137,128.583511 97.121811,125.319046 101.088921,115.794563 
	C101.261765,115.379593 101.944054,115.176826 102.595894,115.754601 
M183.653839,117.752007 
	C184.548630,109.404037 181.858246,103.809364 175.460953,100.714851 
	C169.062622,97.619835 162.912369,98.931587 156.822815,104.803352 
	C158.148102,106.746010 159.489716,108.712593 160.911423,110.796577 
	C161.922409,109.998009 162.541351,109.454330 163.213455,108.987091 
	C167.562668,105.963577 172.198837,106.142326 174.748001,109.638466 
	C177.092514,112.853935 176.911148,116.244583 174.322052,119.238136 
	C171.526459,122.470436 166.586746,122.479286 162.753098,118.834991 
	C160.153320,116.363625 158.521515,112.898048 156.033951,110.278679 
	C152.679199,106.746147 149.380661,102.743202 145.219116,100.494926 
	C139.464813,97.386169 133.419754,98.995087 128.719559,103.554016 
	C124.339325,107.802589 122.836655,113.053673 124.952934,119.066078 
	C128.865738,130.182510 142.024490,132.460724 151.367737,123.468376 
	C150.019043,121.534164 148.657257,119.581169 147.299591,117.634079 
	C145.781845,118.675613 144.626236,119.632683 143.329880,120.326942 
	C139.691681,122.275337 136.095337,122.120293 133.435654,118.828224 
	C130.985474,115.795471 130.960114,112.274788 133.708939,109.289963 
	C136.613510,106.136024 140.401093,105.853592 143.609909,108.291603 
	C146.442566,110.443802 148.578857,113.537849 150.923019,116.300560 
	C153.277008,119.074860 155.138657,122.386398 157.859772,124.708023 
	C167.222290,132.695938 178.647263,129.777695 183.653839,117.752007 
M64.403763,100.701935 
	C61.855446,104.022560 59.307133,107.343193 56.542515,110.945679 
	C54.932751,107.057671 54.013386,103.555588 52.092224,100.736115 
	C51.127296,99.320007 48.339008,98.615067 46.377804,98.619835 
	C45.300877,98.622444 43.941933,100.619827 43.239128,101.989265 
	C42.588879,103.256302 42.636242,104.883888 42.388973,106.354797 
	C41.167492,113.621048 39.950195,120.888008 38.676891,128.479843 
	C41.807766,128.479843 44.086491,128.479843 46.751892,128.479843 
	C47.172604,126.479553 47.580837,124.569862 47.974743,122.657234 
	C48.396034,120.611656 48.803825,118.563309 49.146191,116.869087 
	C50.972702,118.829857 52.670406,122.202530 54.731155,122.441246 
	C56.919010,122.694695 59.451355,119.974388 62.175049,118.348709 
	C61.728378,121.691467 61.300537,124.893280 60.829033,128.421875 
	C63.779552,128.421875 66.199730,128.421875 68.992157,128.421875 
	C70.742493,118.513748 72.463242,108.773102 74.446663,97.545555 
	C70.516777,98.592262 67.684998,99.346489 64.403763,100.701935 
M39.911289,107.451775 
	C40.311916,104.596100 40.712543,101.740433 41.112919,98.886566 
	C33.109638,97.901161 33.121307,97.903191 31.911514,104.860703 
	C31.229717,108.781715 30.942812,112.854172 29.608377,116.543892 
	C28.944012,118.380852 26.322121,119.509850 24.585732,120.959099 
	C23.923237,119.057961 22.558620,117.090904 22.729771,115.268044 
	C23.245037,109.780128 24.358271,104.348358 25.287273,98.591095 
	C22.139006,98.591095 19.854073,98.591095 16.847845,98.591095 
	C15.823067,105.497307 14.386342,112.312637 13.924225,119.193428 
	C13.548746,124.784218 17.955040,128.758179 23.612501,129.134521 
	C30.741482,129.608749 36.084709,125.716743 37.830551,118.566551 
	C38.655323,115.188660 39.156483,111.731743 39.911289,107.451775 
M204.712860,99.514648 
	C199.844177,99.108765 194.975494,98.702873 189.843170,98.275002 
	C188.017456,108.760643 186.330292,118.450569 184.606415,128.351318 
	C187.751724,128.351318 190.193527,128.351318 192.795013,128.351318 
	C193.446747,125.164787 194.067459,122.129944 194.705856,119.008598 
	C201.191010,119.042557 207.435028,118.525764 209.651260,111.483894 
	C211.074982,106.960159 210.191315,102.525772 204.712860,99.514648 
z"/>
<path fill="#F7F6F6" opacity="1.000000" stroke="none" 
	d="
M183.486435,118.120193 
	C178.647263,129.777695 167.222290,132.695938 157.859772,124.708023 
	C155.138657,122.386398 153.277008,119.074860 150.923019,116.300560 
	C148.578857,113.537849 146.442566,110.443802 143.609909,108.291603 
	C140.401093,105.853592 136.613510,106.136024 133.708939,109.289963 
	C130.960114,112.274788 130.985474,115.795471 133.435654,118.828224 
	C136.095337,122.120293 139.691681,122.275337 143.329880,120.326942 
	C144.626236,119.632683 145.781845,118.675613 147.299591,117.634079 
	C148.657257,119.581169 150.019043,121.534164 151.367737,123.468376 
	C142.024490,132.460724 128.865738,130.182510 124.952934,119.066078 
	C122.836655,113.053673 124.339325,107.802589 128.719559,103.554016 
	C133.419754,98.995087 139.464813,97.386169 145.219116,100.494926 
	C149.380661,102.743202 152.679199,106.746147 156.033951,110.278679 
	C158.521515,112.898048 160.153320,116.363625 162.753098,118.834991 
	C166.586746,122.479286 171.526459,122.470436 174.322052,119.238136 
	C176.911148,116.244583 177.092514,112.853935 174.748001,109.638466 
	C172.198837,106.142326 167.562668,105.963577 163.213455,108.987091 
	C162.541351,109.454330 161.922409,109.998009 160.911423,110.796577 
	C159.489716,108.712593 158.148102,106.746010 156.822815,104.803352 
	C162.912369,98.931587 169.062622,97.619835 175.460953,100.714851 
	C181.858246,103.809364 184.548630,109.404037 183.486435,118.120193 
z"/>
<path fill="#DC1F30" opacity="1.000000" stroke="none" 
	d="
M64.628494,100.401329 
	C67.684998,99.346489 70.516777,98.592262 74.446663,97.545555 
	C72.463242,108.773102 70.742493,118.513748 68.992157,128.421875 
	C66.199730,128.421875 63.779552,128.421875 60.829033,128.421875 
	C61.300537,124.893280 61.728378,121.691467 62.175049,118.348709 
	C59.451355,119.974388 56.919010,122.694695 54.731155,122.441246 
	C52.670406,122.202530 50.972702,118.829857 49.146191,116.869087 
	C48.803825,118.563309 48.396034,120.611656 47.974743,122.657234 
	C47.580837,124.569862 47.172604,126.479553 46.751892,128.479843 
	C44.086491,128.479843 41.807766,128.479843 38.676891,128.479843 
	C39.950195,120.888008 41.167492,113.621048 42.388973,106.354797 
	C42.636242,104.883888 42.588879,103.256302 43.239128,101.989265 
	C43.941933,100.619827 45.300877,98.622444 46.377804,98.619835 
	C48.339008,98.615067 51.127296,99.320007 52.092224,100.736115 
	C54.013386,103.555588 54.932751,107.057671 56.542515,110.945679 
	C59.307133,107.343193 61.855446,104.022560 64.628494,100.401329 
z"/>
<path fill="#DC1F30" opacity="1.000000" stroke="none" 
	d="
M102.389030,114.875214 
	C101.944054,115.176826 101.261765,115.379593 101.088921,115.794563 
	C97.121811,125.319046 92.362137,128.583511 82.113747,128.687424 
	C78.979942,128.719193 75.845543,128.692352 72.049561,128.692352 
	C73.859299,118.443665 75.574318,108.731392 77.275230,99.098991 
	C95.774803,96.269058 101.667587,101.943085 101.977615,114.590202 
	C102.248955,114.833328 102.389030,114.875206 102.389030,114.875214 
M93.018707,112.493622 
	C91.838318,106.963745 90.963013,106.408363 84.362823,107.270500 
	C83.640694,111.334694 82.899673,115.505188 82.157219,119.683777 
	C88.937920,120.710381 91.224876,119.322762 93.018707,112.493622 
z"/>
<path fill="#DC1F30" opacity="1.000000" stroke="none" 
	d="
M39.857780,107.881210 
	C39.156483,111.731743 38.655323,115.188660 37.830551,118.566551 
	C36.084709,125.716743 30.741482,129.608749 23.612501,129.134521 
	C17.955040,128.758179 13.548746,124.784218 13.924225,119.193428 
	C14.386342,112.312637 15.823067,105.497307 16.847845,98.591095 
	C19.854073,98.591095 22.139006,98.591095 25.287273,98.591095 
	C24.358271,104.348358 23.245037,109.780128 22.729771,115.268044 
	C22.558620,117.090904 23.923237,119.057961 24.585732,120.959099 
	C26.322121,119.509850 28.944012,118.380852 29.608377,116.543892 
	C30.942812,112.854172 31.229717,108.781715 31.911514,104.860703 
	C33.121307,97.903191 33.109638,97.901161 41.112919,98.886566 
	C40.712543,101.740433 40.311916,104.596100 39.857780,107.881210 
z"/>
<path fill="#F5F5F5" opacity="1.000000" stroke="none" 
	d="
M205.044922,99.723770 
	C210.191315,102.525772 211.074982,106.960159 209.651260,111.483894 
	C207.435028,118.525764 201.191010,119.042557 194.705856,119.008598 
	C194.067459,122.129944 193.446747,125.164787 192.795013,128.351318 
	C190.193527,128.351318 187.751724,128.351318 184.606415,128.351318 
	C186.330292,118.450569 188.017456,108.760643 189.843170,98.275002 
	C194.975494,98.702873 199.844177,99.108765 205.044922,99.723770 
z"/>
<path fill="#EEEDED" opacity="1.000000" stroke="none" 
	d="
M102.312454,114.862808 
	C103.057182,111.688507 103.773613,108.491730 104.412498,105.279526 
	C105.860970,97.996994 105.845444,97.993904 113.926941,99.013367 
	C112.740677,105.982788 111.555305,112.946976 110.296867,120.340385 
	C114.094048,120.340385 117.545288,120.340385 120.968239,120.340385 
	C121.306641,128.570343 121.306641,128.570374 113.587944,128.570572 
	C109.446793,128.570679 105.305641,128.570602 100.465073,128.570602 
	C101.215111,124.059471 101.905502,119.907036 102.492462,115.314903 
	C102.389030,114.875206 102.248955,114.833328 102.312454,114.862808 
z"/>
<path fill="#010000" opacity="1.000000" stroke="none" 
	d="
M93.016747,112.897766 
	C91.224876,119.322762 88.937920,120.710381 82.157219,119.683777 
	C82.899673,115.505188 83.640694,111.334694 84.362823,107.270500 
	C90.963013,106.408363 91.838318,106.963745 93.016747,112.897766 
z"/>
</svg>