<svg version="1.1" id="Layer_1" xmlns="http://www.w3.org/2000/svg" xmlns:xlink="http://www.w3.org/1999/xlink" x="0px" y="0px"
	 width="100%" viewBox="0 0 224 224" enable-background="new 0 0 224 224" xml:space="preserve">
<path fill="#FEFEFE" opacity="1.000000" stroke="none" 
	d="
M126.000000,225.000000 
	C84.000000,225.000000 42.500004,225.000000 1.000005,225.000000 
	C1.000004,150.333344 1.000004,75.666679 1.000002,1.000016 
	C75.666656,1.000010 150.333313,1.000010 224.999969,1.000005 
	C224.999985,75.666649 224.999985,150.333298 225.000000,224.999969 
	C192.166672,225.000000 159.333328,225.000000 126.000000,225.000000 
M156.450623,115.936508 
	C156.771408,115.375153 157.092209,114.813805 157.446732,114.193436 
	C161.549515,124.511818 166.671432,127.762711 176.500305,126.362671 
	C183.861938,125.314079 190.410309,118.666573 191.163849,111.477158 
	C191.989548,103.599350 188.698227,96.734665 182.185104,95.064087 
	C178.198730,94.041618 173.244934,93.658478 169.619919,95.154778 
	C165.120071,97.012207 161.544373,101.108521 157.556931,104.247696 
	C155.077332,96.668175 148.931259,93.062752 139.978378,93.981926 
	C132.251541,94.775223 126.319199,100.324043 124.466431,108.585564 
	C123.084259,114.748688 125.965912,121.286995 131.607529,124.788269 
	C139.520523,129.699203 150.865189,125.907356 156.450623,115.936508 
M43.052711,126.030464 
	C44.556671,121.847000 46.060627,117.663544 47.237717,114.389313 
	C48.956810,115.964188 51.159691,119.580025 53.374855,119.587570 
	C55.871689,119.596085 58.379589,116.355637 61.117435,114.356934 
	C60.584255,118.129585 60.060467,121.835762 59.511345,125.721191 
	C62.548210,125.721191 65.097931,125.721191 67.982780,125.721191 
	C69.724800,115.270523 71.420021,105.100555 73.123260,94.882523 
	C64.948883,94.049652 64.975609,94.069221 61.003201,99.493477 
	C59.083015,102.115479 57.040703,104.648026 54.611832,107.793243 
	C53.509964,104.887711 52.666531,102.623177 51.793797,100.369987 
	C49.247379,93.795807 48.448639,93.399727 41.161655,95.262840 
	C39.460930,105.232811 37.739540,115.323921 35.908119,126.060028 
	C38.297043,126.060028 40.241875,126.060028 43.052711,126.030464 
M101.386940,113.767403 
	C104.344734,102.405571 99.095695,95.035973 87.582855,94.475601 
	C84.932266,94.346603 82.240318,94.216576 79.627289,94.552650 
	C78.452660,94.703728 76.635773,95.848663 76.453293,96.800186 
	C74.624397,106.337013 73.075165,115.927467 71.352386,126.060188 
	C75.856392,126.060188 79.801918,126.130814 83.744064,126.045479 
	C91.956017,125.867744 98.035744,122.414429 101.386940,113.767403 
M27.453999,108.665520 
	C26.793093,111.068954 26.592514,113.768616 25.305235,115.768959 
	C24.482780,117.046989 22.078093,117.661507 20.329584,117.778503 
	C19.786089,117.814873 18.514769,115.233704 18.545895,113.873024 
	C18.610039,111.068825 19.368544,108.285423 19.764788,105.482651 
	C20.261057,101.972359 20.680408,98.451187 21.131563,94.945580 
	C12.786751,93.956207 12.751819,93.970367 11.637483,101.105087 
	C10.969829,105.379852 10.213300,109.647003 9.740406,113.944389 
	C9.082581,119.922356 11.637235,124.389946 16.372988,126.031845 
	C21.974907,127.974037 29.478863,126.016960 32.003010,121.457199 
	C36.570377,113.206451 37.094688,103.989975 38.294968,94.785202 
	C35.075382,94.785202 32.501404,94.785202 29.683928,94.785202 
	C28.969833,99.322899 28.300251,103.577744 27.453999,108.665520 
M211.004486,95.146515 
	C206.080154,94.878990 201.155838,94.611465 195.852371,94.323334 
	C194.019928,105.165649 192.292984,115.383667 190.536240,125.778145 
	C193.861023,125.778145 196.426086,125.778145 199.072403,125.778145 
	C199.817444,122.365875 200.510956,119.189613 201.193649,116.062920 
	C208.147507,116.153252 214.229416,115.186554 216.802155,108.177109 
	C218.682068,103.055206 216.781952,98.876213 211.004486,95.146515 
M104.942619,104.297226 
	C103.794662,111.441551 102.646706,118.585876 101.482651,125.830391 
	C108.388306,125.830391 115.152946,125.830391 122.165352,125.830391 
	C122.582237,123.115753 122.970932,120.584679 123.419556,117.663376 
	C119.276756,117.663376 115.830032,117.663376 111.697670,117.663376 
	C112.934486,109.852150 114.110878,102.422562 115.325867,94.749222 
	C112.466896,94.749222 109.871475,94.749222 107.056824,94.749222 
	C106.356415,97.695297 105.671677,100.575470 104.942619,104.297226 
z"/>
<path fill="#0A0C0C" opacity="1.000000" stroke="none" 
	d="
M156.285431,116.265808 
	C150.865189,125.907356 139.520523,129.699203 131.607529,124.788269 
	C125.965912,121.286995 123.084259,114.748688 124.466431,108.585564 
	C126.319199,100.324043 132.251541,94.775223 139.978378,93.981926 
	C148.931259,93.062752 155.077332,96.668175 157.556931,104.247696 
	C161.544373,101.108521 165.120071,97.012207 169.619919,95.154778 
	C173.244934,93.658478 178.198730,94.041618 182.185104,95.064087 
	C188.698227,96.734665 191.989548,103.599350 191.163849,111.477158 
	C190.410309,118.666573 183.861938,125.314079 176.500305,126.362671 
	C166.671432,127.762711 161.549515,124.511818 157.446732,114.193436 
	C157.092209,114.813805 156.771408,115.375153 156.285431,116.265808 
M175.928268,117.966072 
	C181.617203,115.284233 184.116913,110.678902 182.247314,106.324265 
	C180.685806,102.687233 176.431198,101.224800 172.073929,102.965569 
	C167.888123,104.637840 165.683533,108.026031 166.286697,112.312271 
	C166.955215,117.062927 170.521088,118.671860 175.928268,117.966072 
M145.734421,116.428993 
	C149.027390,113.688667 150.164276,109.931168 148.661819,106.236366 
	C147.931137,104.439491 145.058380,102.854774 142.908707,102.434082 
	C138.724518,101.615204 135.122849,103.750465 133.888763,107.691467 
	C133.117447,110.154640 133.313156,113.912262 134.746613,115.856598 
	C137.303146,119.324280 141.379242,118.776573 145.734421,116.428993 
z"/>
<path fill="#E42236" opacity="1.000000" stroke="none" 
	d="
M42.619705,126.045242 
	C40.241875,126.060028 38.297043,126.060028 35.908119,126.060028 
	C37.739540,115.323921 39.460930,105.232811 41.161655,95.262840 
	C48.448639,93.399727 49.247379,93.795807 51.793797,100.369987 
	C52.666531,102.623177 53.509964,104.887711 54.611832,107.793243 
	C57.040703,104.648026 59.083015,102.115479 61.003201,99.493477 
	C64.975609,94.069221 64.948883,94.049652 73.123260,94.882523 
	C71.420021,105.100555 69.724800,115.270523 67.982780,125.721191 
	C65.097931,125.721191 62.548210,125.721191 59.511345,125.721191 
	C60.060467,121.835762 60.584255,118.129585 61.117435,114.356934 
	C58.379589,116.355637 55.871689,119.596085 53.374855,119.587570 
	C51.159691,119.580025 48.956810,115.964188 47.237717,114.389313 
	C46.060627,117.663544 44.556671,121.847000 42.619705,126.045242 
z"/>
<path fill="#E42236" opacity="1.000000" stroke="none" 
	d="
M101.244865,114.122971 
	C98.035744,122.414429 91.956017,125.867744 83.744064,126.045479 
	C79.801918,126.130814 75.856392,126.060188 71.352386,126.060188 
	C73.075165,115.927467 74.624397,106.337013 76.453293,96.800186 
	C76.635773,95.848663 78.452660,94.703728 79.627289,94.552650 
	C82.240318,94.216576 84.932266,94.346603 87.582855,94.475601 
	C99.095695,95.035973 104.344734,102.405571 101.244865,114.122971 
M82.182198,112.689537 
	C82.080269,114.463112 81.978340,116.236679 81.871117,118.102463 
	C91.115379,116.564011 94.191940,113.800720 93.400604,108.052956 
	C92.789566,103.614807 90.760300,102.525703 84.381714,103.319618 
	C83.922676,104.983185 83.413559,106.705269 82.979332,108.446037 
	C82.699928,109.566116 82.530563,110.713646 82.182198,112.689537 
z"/>
<path fill="#E32034" opacity="1.000000" stroke="none" 
	d="
M27.542334,108.249054 
	C28.300251,103.577744 28.969833,99.322899 29.683928,94.785202 
	C32.501404,94.785202 35.075382,94.785202 38.294968,94.785202 
	C37.094688,103.989975 36.570377,113.206451 32.003010,121.457199 
	C29.478863,126.016960 21.974907,127.974037 16.372988,126.031845 
	C11.637235,124.389946 9.082581,119.922356 9.740406,113.944389 
	C10.213300,109.647003 10.969829,105.379852 11.637483,101.105087 
	C12.751819,93.970367 12.786751,93.956207 21.131563,94.945580 
	C20.680408,98.451187 20.261057,101.972359 19.764788,105.482651 
	C19.368544,108.285423 18.610039,111.068825 18.545895,113.873024 
	C18.514769,115.233704 19.786089,117.814873 20.329584,117.778503 
	C22.078093,117.661507 24.482780,117.046989 25.305235,115.768959 
	C26.592514,113.768616 26.793093,111.068954 27.542334,108.249054 
z"/>
<path fill="#090C0C" opacity="1.000000" stroke="none" 
	d="
M211.369385,95.306625 
	C216.781952,98.876213 218.682068,103.055206 216.802155,108.177109 
	C214.229416,115.186554 208.147507,116.153252 201.193649,116.062920 
	C200.510956,119.189613 199.817444,122.365875 199.072403,125.778145 
	C196.426086,125.778145 193.861023,125.778145 190.536240,125.778145 
	C192.292984,115.383667 194.019928,105.165649 195.852371,94.323334 
	C201.155838,94.611465 206.080154,94.878990 211.369385,95.306625 
M208.724213,105.377022 
	C207.351639,104.498634 205.867584,102.813698 204.639893,102.983414 
	C203.553284,103.133629 202.751984,105.347885 201.824722,106.650909 
	C202.254501,107.146523 202.684280,107.642136 203.114059,108.137749 
	C204.863144,107.430946 206.612228,106.724144 208.724213,105.377022 
z"/>
<path fill="#0A0C0C" opacity="1.000000" stroke="none" 
	d="
M104.964783,103.876434 
	C105.671677,100.575470 106.356415,97.695297 107.056824,94.749222 
	C109.871475,94.749222 112.466896,94.749222 115.325867,94.749222 
	C114.110878,102.422562 112.934486,109.852150 111.697670,117.663376 
	C115.830032,117.663376 119.276756,117.663376 123.419556,117.663376 
	C122.970932,120.584679 122.582237,123.115753 122.165352,125.830391 
	C115.152946,125.830391 108.388306,125.830391 101.482651,125.830391 
	C102.646706,118.585876 103.794662,111.441551 104.964783,103.876434 
z"/>
<path fill="#F4F4F4" opacity="1.000000" stroke="none" 
	d="
M175.524521,118.012177 
	C170.521088,118.671860 166.955215,117.062927 166.286697,112.312271 
	C165.683533,108.026031 167.888123,104.637840 172.073929,102.965569 
	C176.431198,101.224800 180.685806,102.687233 182.247314,106.324265 
	C184.116913,110.678902 181.617203,115.284233 175.524521,118.012177 
z"/>
<path fill="#F6F6F6" opacity="1.000000" stroke="none" 
	d="
M145.401947,116.652550 
	C141.379242,118.776573 137.303146,119.324280 134.746613,115.856598 
	C133.313156,113.912262 133.117447,110.154640 133.888763,107.691467 
	C135.122849,103.750465 138.724518,101.615204 142.908707,102.434082 
	C145.058380,102.854774 147.931137,104.439491 148.661819,106.236366 
	C150.164276,109.931168 149.027390,113.688667 145.401947,116.652550 
z"/>
<path fill="#FDF2F3" opacity="1.000000" stroke="none" 
	d="
M82.247040,112.269203 
	C82.530563,110.713646 82.699928,109.566116 82.979332,108.446037 
	C83.413559,106.705269 83.922676,104.983185 84.381714,103.319618 
	C90.760300,102.525703 92.789566,103.614807 93.400604,108.052956 
	C94.191940,113.800720 91.115379,116.564011 81.871117,118.102463 
	C81.978340,116.236679 82.080269,114.463112 82.247040,112.269203 
z"/>
<path fill="#D8D8D8" opacity="1.000000" stroke="none" 
	d="
M208.542755,105.697182 
	C206.612228,106.724144 204.863144,107.430946 203.114059,108.137749 
	C202.684280,107.642136 202.254501,107.146523 201.824722,106.650909 
	C202.751984,105.347885 203.553284,103.133629 204.639893,102.983414 
	C205.867584,102.813698 207.351639,104.498634 208.542755,105.697182 
z"/>
</svg>