<svg width="53" height="50" viewBox="0 0 53 50" fill="none" xmlns="http://www.w3.org/2000/svg">
<rect width="53" height="50" rx="5" fill="#ECECEC"/>
<path d="M14.1705 41.1932C13.2727 41.1894 12.5057 40.9527 11.8693 40.483C11.233 40.0133 10.7462 39.3295 10.4091 38.4318C10.072 37.5341 9.90341 36.4527 9.90341 35.1875C9.90341 33.9261 10.072 32.8485 10.4091 31.9545C10.75 31.0606 11.2386 30.3788 11.875 29.9091C12.5152 29.4394 13.2803 29.2045 14.1705 29.2045C15.0606 29.2045 15.8239 29.4413 16.4602 29.9148C17.0966 30.3845 17.5833 31.0663 17.9205 31.9602C18.2614 32.8504 18.4318 33.9261 18.4318 35.1875C18.4318 36.4564 18.2633 37.5398 17.9261 38.4375C17.589 39.3314 17.1023 40.0152 16.4659 40.4886C15.8295 40.9583 15.0644 41.1932 14.1705 41.1932ZM14.1705 39.6761C14.9583 39.6761 15.5739 39.2917 16.017 38.5227C16.464 37.7538 16.6875 36.642 16.6875 35.1875C16.6875 34.2216 16.5852 33.4053 16.3807 32.7386C16.1799 32.0682 15.8902 31.5606 15.5114 31.2159C15.1364 30.8674 14.6894 30.6932 14.1705 30.6932C13.3864 30.6932 12.7708 31.0795 12.3239 31.8523C11.8769 32.625 11.6515 33.7367 11.6477 35.1875C11.6477 36.1572 11.7481 36.9773 11.9489 37.6477C12.1534 38.3144 12.4432 38.8201 12.8182 39.1648C13.1932 39.5057 13.6439 39.6761 14.1705 39.6761Z" fill="#686868"/>
<path d="M15.4035 16.1705C15.4035 17.5985 15.216 18.911 14.841 20.108C14.466 21.3049 13.9186 22.4091 13.1989 23.4205H11.6421C11.9224 23.0455 12.1838 22.5852 12.4262 22.0398C12.6686 21.4943 12.8807 20.8977 13.0626 20.25C13.2444 19.5985 13.3864 18.9242 13.4887 18.2273C13.591 17.5303 13.6421 16.8447 13.6421 16.1705C13.6421 15.2727 13.5531 14.3617 13.3751 13.4375C13.197 12.5133 12.9565 11.6553 12.6535 10.8636C12.3504 10.072 12.0133 9.42614 11.6421 8.92614H13.1989C13.9186 9.9375 14.466 11.0417 14.841 12.2386C15.216 13.4356 15.4035 14.7462 15.4035 16.1705Z" fill="#686868"/>
</svg>
