<svg width="53" height="50" viewBox="0 0 53 50" fill="none" xmlns="http://www.w3.org/2000/svg">
<rect width="53" height="50" rx="5" fill="#ECECEC"/>
<path d="M14.5341 29.3636V41H12.7727V31.125H12.7045L9.92045 32.9432V31.2614L12.8239 29.3636H14.5341Z" fill="#686868"/>
<path d="M14.2785 9.36364L14.1307 17.6534H12.5569L12.4091 9.36364H14.2785ZM13.3466 21.108C13.0323 21.108 12.7633 20.9981 12.5398 20.7784C12.3163 20.5549 12.2065 20.286 12.2103 19.9716C12.2065 19.661 12.3163 19.3958 12.5398 19.1761C12.7633 18.9527 13.0323 18.8409 13.3466 18.8409C13.6535 18.8409 13.9186 18.9527 14.1421 19.1761C14.3656 19.3958 14.4792 19.661 14.483 19.9716C14.4792 20.1799 14.4243 20.3712 14.3182 20.5455C14.216 20.7159 14.0796 20.8523 13.9091 20.9545C13.7387 21.0568 13.5512 21.108 13.3466 21.108Z" fill="#686868"/>
</svg>
