<svg width="53" height="50" viewBox="0 0 53 50" fill="none" xmlns="http://www.w3.org/2000/svg">
<rect width="53" height="50" rx="5" fill="#ECECEC"/>
<path d="M10.1193 41V39.7273L14.0568 35.6477C14.4773 35.2045 14.8239 34.8163 15.0966 34.483C15.3731 34.1458 15.5795 33.8258 15.7159 33.5227C15.8523 33.2197 15.9205 32.8977 15.9205 32.5568C15.9205 32.1705 15.8295 31.8371 15.6477 31.5568C15.4659 31.2727 15.2178 31.0549 14.9034 30.9034C14.589 30.7481 14.2348 30.6705 13.8409 30.6705C13.4242 30.6705 13.0606 30.7557 12.75 30.9261C12.4394 31.0966 12.2008 31.3371 12.0341 31.6477C11.8674 31.9583 11.7841 32.322 11.7841 32.7386H10.108C10.108 32.0303 10.2708 31.411 10.5966 30.8807C10.9223 30.3504 11.3693 29.9394 11.9375 29.6477C12.5057 29.3523 13.1515 29.2045 13.875 29.2045C14.6061 29.2045 15.25 29.3504 15.8068 29.642C16.3674 29.9299 16.8049 30.3239 17.1193 30.8239C17.4337 31.3201 17.5909 31.8807 17.5909 32.5057C17.5909 32.9375 17.5095 33.3598 17.3466 33.7727C17.1875 34.1856 16.9091 34.6458 16.5114 35.1534C16.1136 35.6572 15.5606 36.2689 14.8523 36.9886L12.5398 39.4091V39.4943H17.7784V41H10.1193Z" fill="#686868"/>
<path d="M14.5021 24.1648C13.3279 24.1648 12.2862 24.0038 11.3771 23.6818C10.4718 23.3636 9.70854 22.8939 9.08733 22.2727C8.46612 21.6553 7.99453 20.8977 7.67256 20C7.35059 19.1023 7.1896 18.0777 7.1896 16.9261C7.1896 15.8049 7.35248 14.7973 7.67824 13.9034C8.004 13.0095 8.47748 12.2481 9.09869 11.6193C9.72369 10.9867 10.4832 10.5038 11.3771 10.1705C12.271 9.83712 13.2862 9.67045 14.4226 9.67045C15.5097 9.67045 16.468 9.84091 17.2976 10.1818C18.1271 10.5227 18.8241 10.9905 19.3885 11.5852C19.9566 12.1799 20.3847 12.8617 20.6726 13.6307C20.9604 14.3996 21.1044 15.2121 21.1044 16.0682C21.1044 16.6667 21.0665 17.2519 20.9907 17.8239C20.915 18.392 20.7748 18.9072 20.5703 19.3693C20.3695 19.8277 20.0779 20.1951 19.6953 20.4716C19.3165 20.7443 18.8241 20.8864 18.218 20.8977C17.896 20.9091 17.5835 20.8712 17.2805 20.7841C16.9775 20.697 16.7199 20.5568 16.5078 20.3636C16.2957 20.1667 16.1669 19.9167 16.1214 19.6136H16.0532C15.9623 19.8371 15.8108 20.0455 15.5987 20.2386C15.3866 20.428 15.1157 20.5795 14.7862 20.6932C14.4604 20.803 14.0816 20.8485 13.6498 20.8295C13.1726 20.8106 12.7426 20.7027 12.3601 20.5057C11.9775 20.3087 11.6498 20.036 11.3771 19.6875C11.1082 19.339 10.9017 18.9261 10.7578 18.4489C10.6138 17.9716 10.5419 17.4413 10.5419 16.858C10.5419 16.2973 10.6233 15.7955 10.7862 15.3523C10.9491 14.9053 11.1707 14.5208 11.451 14.1989C11.7351 13.8731 12.0608 13.6155 12.4282 13.4261C12.7957 13.2367 13.1839 13.1174 13.593 13.0682C13.9907 13.0227 14.3563 13.0341 14.6896 13.1023C15.0229 13.1705 15.2995 13.2746 15.5191 13.4148C15.7426 13.5549 15.8828 13.7083 15.9396 13.875H16.0135V13.2386H17.4112V18.5114C17.4112 18.8106 17.4888 19.0644 17.6441 19.2727C17.8032 19.4811 18.0286 19.5852 18.3203 19.5852C18.665 19.5852 18.9339 19.4583 19.1271 19.2045C19.3241 18.9508 19.4623 18.5606 19.5419 18.0341C19.6252 17.5076 19.6669 16.8333 19.6669 16.0114C19.6669 15.4356 19.5892 14.8939 19.4339 14.3864C19.2824 13.875 19.057 13.4129 18.7578 13C18.4623 12.5833 18.0987 12.2254 17.6669 11.9261C17.2351 11.6269 16.7426 11.3958 16.1896 11.233C15.6404 11.0701 15.0324 10.9886 14.3657 10.9886C13.4604 10.9886 12.6555 11.1288 11.951 11.4091C11.2464 11.6856 10.6517 12.0852 10.1669 12.608C9.68581 13.1307 9.32028 13.7576 9.07028 14.4886C8.82407 15.2159 8.70097 16.0322 8.70097 16.9375C8.70097 17.8807 8.82786 18.7178 9.08165 19.4489C9.33544 20.1761 9.71044 20.7898 10.2066 21.2898C10.7029 21.7898 11.3165 22.1686 12.0476 22.4261C12.7786 22.6875 13.6214 22.8182 14.576 22.8182C15.0002 22.8182 15.4169 22.7803 15.826 22.7045C16.2351 22.6326 16.5987 22.5492 16.9169 22.4545C17.2388 22.3636 17.4794 22.2898 17.6385 22.233L18.0362 23.4773C17.8013 23.5871 17.4888 23.6951 17.0987 23.8011C16.7123 23.9072 16.2919 23.9943 15.8373 24.0625C15.3866 24.1307 14.9415 24.1648 14.5021 24.1648ZM13.9794 19.4375C14.4718 19.4375 14.8676 19.339 15.1669 19.142C15.4699 18.9451 15.6877 18.6515 15.8203 18.2614C15.9566 17.8674 16.0248 17.375 16.0248 16.7841C16.021 16.2083 15.9472 15.75 15.8032 15.4091C15.6631 15.0644 15.4434 14.8182 15.1441 14.6705C14.8487 14.5189 14.468 14.4432 14.0021 14.4432C13.5741 14.4432 13.2085 14.5473 12.9055 14.7557C12.6063 14.964 12.3771 15.2462 12.218 15.6023C12.0627 15.9583 11.9832 16.3542 11.9794 16.7898C11.9832 17.2481 12.0476 17.6799 12.1726 18.0852C12.3013 18.4867 12.5097 18.8125 12.7976 19.0625C13.0892 19.3125 13.4832 19.4375 13.9794 19.4375Z" fill="#686868"/>
</svg>
