<svg width="53" height="50" viewBox="0 0 53 50" fill="none" xmlns="http://www.w3.org/2000/svg">
<rect width="53" height="50" rx="5" fill="#ECECEC"/>
<path d="M14.1705 41.1591C13.3902 41.1591 12.6932 41.0246 12.0795 40.7557C11.4697 40.4867 10.9867 40.1136 10.6307 39.6364C10.2784 39.1553 10.089 38.5985 10.0625 37.9659H11.8466C11.8693 38.3106 11.9848 38.6098 12.1932 38.8636C12.4053 39.1136 12.6818 39.3068 13.0227 39.4432C13.3636 39.5795 13.7424 39.6477 14.1591 39.6477C14.6174 39.6477 15.0227 39.5682 15.375 39.4091C15.7311 39.25 16.0095 39.0284 16.2102 38.7443C16.411 38.4564 16.5114 38.125 16.5114 37.75C16.5114 37.3598 16.411 37.017 16.2102 36.7216C16.0133 36.4223 15.7235 36.1875 15.3409 36.017C14.9621 35.8466 14.5038 35.7614 13.9659 35.7614H12.983V34.3295H13.9659C14.3977 34.3295 14.7765 34.2519 15.1023 34.0966C15.4318 33.9413 15.6894 33.7254 15.875 33.4489C16.0606 33.1686 16.1534 32.8409 16.1534 32.4659C16.1534 32.1061 16.072 31.7936 15.9091 31.5284C15.75 31.2595 15.5227 31.0492 15.2273 30.8977C14.9356 30.7462 14.5909 30.6705 14.1932 30.6705C13.8144 30.6705 13.4602 30.7405 13.1307 30.8807C12.8049 31.017 12.5398 31.214 12.3352 31.4716C12.1307 31.7254 12.0208 32.0303 12.0057 32.3864H10.3068C10.3258 31.7576 10.5114 31.2045 10.8636 30.7273C11.2197 30.25 11.6894 29.8769 12.2727 29.608C12.8561 29.339 13.5038 29.2045 14.2159 29.2045C14.9621 29.2045 15.6061 29.3504 16.1477 29.642C16.6932 29.9299 17.1136 30.3144 17.4091 30.7955C17.7083 31.2765 17.8561 31.803 17.8523 32.375C17.8561 33.0265 17.6742 33.5795 17.3068 34.0341C16.9432 34.4886 16.4583 34.7936 15.8523 34.9489V35.0398C16.625 35.1572 17.2235 35.464 17.6477 35.9602C18.0758 36.4564 18.2879 37.072 18.2841 37.8068C18.2879 38.447 18.1098 39.0208 17.75 39.5284C17.3939 40.036 16.9072 40.4356 16.2898 40.7273C15.6723 41.0152 14.9659 41.1591 14.1705 41.1591Z" fill="#686868"/>
<path d="M14.5057 21L16.4148 9.36364H17.7784L15.8693 21H14.5057ZM9.23864 17.8864L9.46023 16.5227H18.2784L18.0568 17.8864H9.23864ZM10.4148 21L12.3239 9.36364H13.6875L11.7784 21H10.4148ZM9.91477 13.8409L10.1364 12.4773H18.9545L18.733 13.8409H9.91477Z" fill="#686868"/>
</svg>
