<svg width="53" height="50" viewBox="0 0 53 50" fill="none" xmlns="http://www.w3.org/2000/svg">
<rect width="53" height="50" rx="5" fill="#ECECEC"/>
<path d="M13.9602 41.1591C13.2481 41.1591 12.608 41.0227 12.0398 40.75C11.4754 40.4735 11.0246 40.0947 10.6875 39.6136C10.3504 39.1326 10.1705 38.5833 10.1477 37.9659H11.8523C11.8939 38.4659 12.1155 38.8769 12.517 39.1989C12.9186 39.5208 13.3996 39.6818 13.9602 39.6818C14.4072 39.6818 14.803 39.5795 15.1477 39.375C15.4962 39.1667 15.7689 38.8807 15.9659 38.517C16.1667 38.1534 16.267 37.7386 16.267 37.2727C16.267 36.7992 16.1648 36.3769 15.9602 36.0057C15.7557 35.6345 15.4735 35.3428 15.1136 35.1307C14.7576 34.9186 14.3485 34.8106 13.8864 34.8068C13.5341 34.8068 13.1799 34.8674 12.8239 34.9886C12.4678 35.1098 12.1799 35.2689 11.9602 35.4659L10.3523 35.2273L11.0057 29.3636H17.4034V30.8693H12.4659L12.0966 34.125H12.1648C12.392 33.9053 12.6932 33.7216 13.0682 33.5739C13.447 33.4261 13.8523 33.3523 14.2841 33.3523C14.9924 33.3523 15.6231 33.5208 16.1761 33.858C16.733 34.1951 17.1705 34.6553 17.4886 35.2386C17.8106 35.8182 17.9697 36.4848 17.9659 37.2386C17.9697 37.9924 17.7992 38.6648 17.4545 39.2557C17.1136 39.8466 16.6402 40.3125 16.0341 40.6534C15.4318 40.9905 14.7405 41.1591 13.9602 41.1591Z" fill="#686868"/>
<path d="M16.1932 18.8182V18.2045C16.1932 17.7652 16.2841 17.3636 16.4659 17C16.6515 16.6326 16.9205 16.339 17.2727 16.1193C17.6288 15.8958 18.0587 15.7841 18.5625 15.7841C19.0777 15.7841 19.5095 15.8939 19.858 16.1136C20.2064 16.3333 20.4697 16.6269 20.6477 16.9943C20.8295 17.3617 20.9205 17.7652 20.9205 18.2045V18.8182C20.9205 19.2576 20.8295 19.661 20.6477 20.0284C20.4659 20.392 20.1989 20.6856 19.8466 20.9091C19.4981 21.1288 19.0701 21.2386 18.5625 21.2386C18.0511 21.2386 17.6193 21.1288 17.267 20.9091C16.9148 20.6856 16.6477 20.392 16.4659 20.0284C16.2841 19.661 16.1932 19.2576 16.1932 18.8182ZM17.517 18.2045V18.8182C17.517 19.1439 17.5947 19.4394 17.75 19.7045C17.9053 19.9697 18.1761 20.1023 18.5625 20.1023C18.9451 20.1023 19.2121 19.9697 19.3636 19.7045C19.5152 19.4394 19.5909 19.1439 19.5909 18.8182V18.2045C19.5909 17.8788 19.517 17.5833 19.3693 17.3182C19.2254 17.053 18.9564 16.9205 18.5625 16.9205C18.1837 16.9205 17.9148 17.053 17.7557 17.3182C17.5966 17.5833 17.517 17.8788 17.517 18.2045ZM10.3409 12.1591V11.5455C10.3409 11.1061 10.4318 10.7027 10.6136 10.3352C10.7992 9.9678 11.0682 9.67424 11.4205 9.45455C11.7765 9.23485 12.2064 9.125 12.7102 9.125C13.2254 9.125 13.6572 9.23485 14.0057 9.45455C14.3542 9.67424 14.6174 9.9678 14.7955 10.3352C14.9735 10.7027 15.0625 11.1061 15.0625 11.5455V12.1591C15.0625 12.5985 14.9716 13.0019 14.7898 13.3693C14.6117 13.733 14.3466 14.0265 13.9943 14.25C13.6458 14.4697 13.2178 14.5795 12.7102 14.5795C12.1951 14.5795 11.7614 14.4697 11.4091 14.25C11.0606 14.0265 10.7955 13.733 10.6136 13.3693C10.4318 13.0019 10.3409 12.5985 10.3409 12.1591ZM11.6705 11.5455V12.1591C11.6705 12.4848 11.7462 12.7803 11.8977 13.0455C12.053 13.3106 12.3239 13.4432 12.7102 13.4432C13.089 13.4432 13.3542 13.3106 13.5057 13.0455C13.661 12.7803 13.7386 12.4848 13.7386 12.1591V11.5455C13.7386 11.2197 13.6648 10.9242 13.517 10.6591C13.3693 10.3939 13.1004 10.2614 12.7102 10.2614C12.3314 10.2614 12.0625 10.3939 11.9034 10.6591C11.7481 10.9242 11.6705 11.2197 11.6705 11.5455ZM10.8807 21L18.8807 9.36364H20.2386L12.2386 21H10.8807Z" fill="#686868"/>
</svg>
