<svg width="53" height="50" viewBox="0 0 53 50" fill="none" xmlns="http://www.w3.org/2000/svg">
<rect width="53" height="50" rx="5" fill="#ECECEC"/>
<path d="M14.1818 41.1591C13.6629 41.1515 13.1515 41.0568 12.6477 40.875C12.1477 40.6932 11.6932 40.3902 11.2841 39.9659C10.875 39.5417 10.5473 38.9716 10.3011 38.2557C10.0587 37.5398 9.9375 36.6458 9.9375 35.5739C9.9375 34.5587 10.0379 33.6572 10.2386 32.8693C10.4432 32.0814 10.7367 31.4167 11.1193 30.875C11.5019 30.3295 11.964 29.9148 12.5057 29.6307C13.0473 29.3466 13.6553 29.2045 14.3295 29.2045C15.0227 29.2045 15.6383 29.3409 16.1761 29.6136C16.714 29.8864 17.1496 30.2633 17.483 30.7443C17.8201 31.2254 18.0341 31.7727 18.125 32.3864H16.392C16.2746 31.9015 16.0417 31.5057 15.6932 31.1989C15.3447 30.892 14.8902 30.7386 14.3295 30.7386C13.4773 30.7386 12.8125 31.1098 12.3352 31.8523C11.8617 32.5947 11.6231 33.6269 11.6193 34.9489H11.7045C11.9053 34.6193 12.1515 34.339 12.4432 34.108C12.7386 33.8731 13.0682 33.6932 13.4318 33.5682C13.7992 33.4394 14.1856 33.375 14.5909 33.375C15.2652 33.375 15.875 33.5398 16.4205 33.8693C16.9697 34.1951 17.4072 34.6458 17.733 35.2216C18.0587 35.7973 18.2216 36.4564 18.2216 37.1989C18.2216 37.9413 18.053 38.6136 17.7159 39.2159C17.3826 39.8182 16.9129 40.2955 16.3068 40.6477C15.7008 40.9962 14.9924 41.1667 14.1818 41.1591ZM14.1761 39.6818C14.6231 39.6818 15.0227 39.572 15.375 39.3523C15.7273 39.1326 16.0057 38.8371 16.2102 38.4659C16.4148 38.0947 16.517 37.6799 16.517 37.2216C16.517 36.7746 16.4167 36.3674 16.2159 36C16.0189 35.6326 15.7462 35.3409 15.3977 35.125C15.053 34.9091 14.6591 34.8011 14.2159 34.8011C13.8788 34.8011 13.5663 34.8655 13.2784 34.9943C12.9943 35.1231 12.7443 35.3011 12.5284 35.5284C12.3125 35.7557 12.142 36.017 12.017 36.3125C11.8958 36.6042 11.8352 36.9129 11.8352 37.2386C11.8352 37.6742 11.9356 38.0777 12.1364 38.4489C12.3409 38.8201 12.6193 39.1193 12.9716 39.3466C13.3277 39.5701 13.7292 39.6818 14.1761 39.6818Z" fill="#686868"/>
<path d="M13.791 10.4489H14.2001V11.0341H13.791V10.4489ZM10.7966 14.6364L13.1546 9.69318H14.8364L17.1944 14.6364H15.6887L13.933 10.8068H14.058L12.3194 14.6364H10.7966Z" fill="#686868"/>
</svg>
