<svg width="53" height="50" viewBox="0 0 53 50" fill="none" xmlns="http://www.w3.org/2000/svg">
<rect width="53" height="50" rx="5" fill="#ECECEC"/>
<path d="M10.5114 41L15.5909 30.9545V30.8693H9.71591V29.3636H17.4091V30.9205L12.3466 41H10.5114Z" fill="#686868"/>
<path d="M13.5284 21.1648C12.7481 21.1648 12.0758 21.0227 11.5114 20.7386C10.9508 20.4545 10.5189 20.0682 10.2159 19.5795C9.91288 19.0871 9.76136 18.5303 9.76136 17.9091C9.76136 17.4356 9.85985 17.0152 10.0568 16.6477C10.2538 16.2765 10.5284 15.9337 10.8807 15.6193C11.233 15.3049 11.6402 14.9886 12.1023 14.6705L13.9773 13.3466C14.2955 13.1383 14.5436 12.9186 14.7216 12.6875C14.8996 12.4527 14.9886 12.1629 14.9886 11.8182C14.9886 11.5455 14.8712 11.2841 14.6364 11.0341C14.4015 10.7841 14.0871 10.6591 13.6932 10.6591C13.4205 10.6591 13.1799 10.7254 12.9716 10.858C12.767 10.9905 12.6061 11.161 12.4886 11.3693C12.375 11.5739 12.3182 11.7898 12.3182 12.017C12.3182 12.2822 12.3902 12.5492 12.5341 12.8182C12.6818 13.0871 12.8712 13.3655 13.1023 13.6534C13.3333 13.9375 13.5758 14.233 13.8295 14.5398L19.233 21H17.3125L12.8409 15.7443C12.4659 15.3011 12.1174 14.8845 11.7955 14.4943C11.4735 14.1004 11.2121 13.7027 11.0114 13.3011C10.8144 12.8958 10.7159 12.4583 10.7159 11.9886C10.7159 11.4545 10.8371 10.9811 11.0795 10.5682C11.3258 10.1515 11.6686 9.82576 12.108 9.59091C12.5473 9.35606 13.0625 9.23864 13.6534 9.23864C14.2519 9.23864 14.7652 9.35606 15.1932 9.59091C15.625 9.82197 15.9564 10.1307 16.1875 10.517C16.4223 10.8996 16.5398 11.3182 16.5398 11.7727C16.5398 12.3258 16.4015 12.8144 16.125 13.2386C15.8523 13.6591 15.4754 14.0455 14.9943 14.3977L12.6591 16.1193C12.2045 16.4527 11.8883 16.7822 11.7102 17.108C11.536 17.4299 11.4489 17.6818 11.4489 17.8636C11.4489 18.197 11.5341 18.5057 11.7045 18.7898C11.8788 19.0739 12.1212 19.3011 12.4318 19.4716C12.7462 19.642 13.1136 19.7273 13.5341 19.7273C13.9659 19.7273 14.3864 19.6345 14.7955 19.4489C15.2083 19.2595 15.5814 18.9886 15.9148 18.6364C16.2519 18.2841 16.5189 17.8617 16.7159 17.3693C16.9129 16.8769 17.0114 16.3258 17.0114 15.7159H18.5455C18.5455 16.4659 18.4602 17.1004 18.2898 17.6193C18.1193 18.1345 17.9129 18.5549 17.6705 18.8807C17.4318 19.2027 17.2064 19.4545 16.9943 19.6364C16.9261 19.697 16.8617 19.7576 16.8011 19.8182C16.7405 19.8788 16.6761 19.9394 16.608 20C16.214 20.3977 15.7367 20.6913 15.1761 20.8807C14.6193 21.0701 14.0701 21.1648 13.5284 21.1648Z" fill="#686868"/>
</svg>
