<svg width="53" height="50" viewBox="0 0 53 50" fill="none" xmlns="http://www.w3.org/2000/svg">
<rect width="53" height="50" rx="5" fill="#ECECEC"/>
<path d="M10.2784 41V29.3636H11.9773V33.6875H12.0795C12.178 33.5057 12.3201 33.2955 12.5057 33.0568C12.6913 32.8182 12.9489 32.6098 13.2784 32.4318C13.608 32.25 14.0436 32.1591 14.5852 32.1591C15.2898 32.1591 15.9186 32.3371 16.4716 32.6932C17.0246 33.0492 17.4583 33.5625 17.7727 34.233C18.0909 34.9034 18.25 35.7102 18.25 36.6534C18.25 37.5966 18.0928 38.4053 17.7784 39.0795C17.464 39.75 17.0322 40.267 16.483 40.6307C15.9337 40.9905 15.3068 41.1705 14.6023 41.1705C14.072 41.1705 13.6383 41.0814 13.3011 40.9034C12.9678 40.7254 12.7064 40.517 12.517 40.2784C12.3277 40.0398 12.1818 39.8277 12.0795 39.642H11.9375V41H10.2784ZM11.9432 36.6364C11.9432 37.25 12.0322 37.7879 12.2102 38.25C12.3883 38.7121 12.6458 39.0739 12.983 39.3352C13.3201 39.5928 13.733 39.7216 14.2216 39.7216C14.7292 39.7216 15.1534 39.5871 15.4943 39.3182C15.8352 39.0455 16.0928 38.6761 16.267 38.2102C16.4451 37.7443 16.5341 37.2197 16.5341 36.6364C16.5341 36.0606 16.447 35.5436 16.2727 35.0852C16.1023 34.6269 15.8447 34.2652 15.5 34C15.1591 33.7348 14.733 33.6023 14.2216 33.6023C13.7292 33.6023 13.3125 33.7292 12.9716 33.983C12.6345 34.2367 12.3788 34.5909 12.2045 35.0455C12.0303 35.5 11.9432 36.0303 11.9432 36.6364Z" fill="#686868"/>
</svg>
