<svg width="102" height="50" viewBox="0 0 102 50" fill="none" xmlns="http://www.w3.org/2000/svg">
<rect width="102" height="50" rx="5" fill="#ECECEC"/>
<path d="M10.2784 41V29.3636H11.9773V33.6875H12.0795C12.178 33.5057 12.3201 33.2955 12.5057 33.0568C12.6913 32.8182 12.9489 32.6098 13.2784 32.4318C13.608 32.25 14.0436 32.1591 14.5852 32.1591C15.2898 32.1591 15.9186 32.3371 16.4716 32.6932C17.0246 33.0492 17.4583 33.5625 17.7727 34.233C18.0909 34.9034 18.25 35.7102 18.25 36.6534C18.25 37.5966 18.0928 38.4053 17.7784 39.0795C17.464 39.75 17.0322 40.267 16.483 40.6307C15.9337 40.9905 15.3068 41.1705 14.6023 41.1705C14.072 41.1705 13.6383 41.0814 13.3011 40.9034C12.9678 40.7254 12.7064 40.517 12.517 40.2784C12.3277 40.0398 12.1818 39.8277 12.0795 39.642H11.9375V41H10.2784ZM11.9432 36.6364C11.9432 37.25 12.0322 37.7879 12.2102 38.25C12.3883 38.7121 12.6458 39.0739 12.983 39.3352C13.3201 39.5928 13.733 39.7216 14.2216 39.7216C14.7292 39.7216 15.1534 39.5871 15.4943 39.3182C15.8352 39.0455 16.0928 38.6761 16.267 38.2102C16.4451 37.7443 16.5341 37.2197 16.5341 36.6364C16.5341 36.0606 16.447 35.5436 16.2727 35.0852C16.1023 34.6269 15.8447 34.2652 15.5 34C15.1591 33.7348 14.733 33.6023 14.2216 33.6023C13.7292 33.6023 13.3125 33.7292 12.9716 33.983C12.6345 34.2367 12.3788 34.5909 12.2045 35.0455C12.0303 35.5 11.9432 36.0303 11.9432 36.6364ZM22.6974 41.1932C22.1444 41.1932 21.6444 41.0909 21.1974 40.8864C20.7505 40.678 20.3963 40.3769 20.1349 39.983C19.8774 39.589 19.7486 39.1061 19.7486 38.5341C19.7486 38.0417 19.8433 37.6364 20.0327 37.3182C20.2221 37 20.4777 36.7481 20.7997 36.5625C21.1217 36.3769 21.4815 36.2367 21.8793 36.142C22.277 36.0473 22.6823 35.9754 23.0952 35.9261C23.6179 35.8655 24.0421 35.8163 24.3679 35.7784C24.6937 35.7367 24.9304 35.6705 25.0781 35.5795C25.2259 35.4886 25.2997 35.3409 25.2997 35.1364V35.0966C25.2997 34.6004 25.1596 34.2159 24.8793 33.9432C24.6027 33.6705 24.1899 33.5341 23.6406 33.5341C23.0687 33.5341 22.6179 33.661 22.2884 33.9148C21.9626 34.1648 21.7372 34.4432 21.6122 34.75L20.0156 34.3864C20.205 33.8561 20.4815 33.428 20.8452 33.1023C21.2126 32.7727 21.6349 32.5341 22.1122 32.3864C22.5895 32.2348 23.0914 32.1591 23.6179 32.1591C23.9664 32.1591 24.3357 32.2008 24.7259 32.2841C25.1198 32.3636 25.4872 32.5114 25.8281 32.7273C26.1728 32.9432 26.455 33.2519 26.6747 33.6534C26.8944 34.0511 27.0043 34.5682 27.0043 35.2045V41H25.3452V39.8068H25.277C25.1671 40.0265 25.0024 40.2424 24.7827 40.4545C24.563 40.6667 24.2808 40.8428 23.9361 40.983C23.5914 41.1231 23.1785 41.1932 22.6974 41.1932ZM23.0668 39.8295C23.5365 39.8295 23.938 39.7367 24.2713 39.5511C24.6084 39.3655 24.8641 39.1231 25.0384 38.8239C25.2164 38.5208 25.3054 38.197 25.3054 37.8523V36.7273C25.2448 36.7879 25.1274 36.8447 24.9531 36.8977C24.7827 36.947 24.5876 36.9905 24.3679 37.0284C24.1482 37.0625 23.9342 37.0947 23.7259 37.125C23.5175 37.1515 23.3433 37.1742 23.2031 37.1932C22.8736 37.2348 22.5724 37.3049 22.2997 37.4034C22.0308 37.5019 21.8149 37.6439 21.652 37.8295C21.4929 38.0114 21.4134 38.2538 21.4134 38.5568C21.4134 38.9773 21.5687 39.2955 21.8793 39.5114C22.1899 39.7235 22.5857 39.8295 23.0668 39.8295ZM32.9432 41.1761C32.0985 41.1761 31.3712 40.9848 30.7614 40.6023C30.1553 40.2159 29.6894 39.6837 29.3636 39.0057C29.0379 38.3277 28.875 37.5511 28.875 36.6761C28.875 35.7898 29.0417 35.0076 29.375 34.3295C29.7083 33.6477 30.178 33.1155 30.7841 32.733C31.3902 32.3504 32.1042 32.1591 32.9261 32.1591C33.589 32.1591 34.1799 32.2822 34.6989 32.5284C35.2178 32.7708 35.6364 33.1117 35.9545 33.5511C36.2765 33.9905 36.4678 34.5038 36.5284 35.0909H34.875C34.7841 34.6818 34.5758 34.3295 34.25 34.0341C33.928 33.7386 33.4962 33.5909 32.9545 33.5909C32.4811 33.5909 32.0663 33.7159 31.7102 33.9659C31.358 34.2121 31.0833 34.5644 30.8864 35.0227C30.6894 35.4773 30.5909 36.0152 30.5909 36.6364C30.5909 37.2727 30.6875 37.822 30.8807 38.2841C31.0739 38.7462 31.3466 39.1042 31.6989 39.358C32.0549 39.6117 32.4735 39.7386 32.9545 39.7386C33.2765 39.7386 33.5682 39.6799 33.8295 39.5625C34.0947 39.4413 34.3163 39.2689 34.4943 39.0455C34.6761 38.822 34.803 38.553 34.875 38.2386H36.5284C36.4678 38.803 36.2841 39.3068 35.9773 39.75C35.6705 40.1932 35.2595 40.5417 34.7443 40.7955C34.233 41.0492 33.6326 41.1761 32.9432 41.1761ZM39.9077 38.0398L39.8963 35.9659H40.1918L43.669 32.2727H45.7031L41.7372 36.4773H41.4702L39.9077 38.0398ZM38.3452 41V29.3636H40.044V41H38.3452ZM43.8565 41L40.7315 36.8523L41.902 35.6648L45.9418 41H43.8565ZM53.7912 34.4034L52.2514 34.6761C52.187 34.4792 52.0848 34.2917 51.9446 34.1136C51.8082 33.9356 51.6226 33.7898 51.3878 33.6761C51.1529 33.5625 50.8594 33.5057 50.5071 33.5057C50.026 33.5057 49.6245 33.6136 49.3026 33.8295C48.9806 34.0417 48.8196 34.3163 48.8196 34.6534C48.8196 34.9451 48.9276 35.1799 49.1435 35.358C49.3594 35.536 49.7079 35.6818 50.1889 35.7955L51.5753 36.1136C52.3783 36.2992 52.9768 36.5852 53.3707 36.9716C53.7647 37.358 53.9616 37.8598 53.9616 38.4773C53.9616 39 53.8101 39.4659 53.5071 39.875C53.2079 40.2803 52.7893 40.5985 52.2514 40.8295C51.7173 41.0606 51.098 41.1761 50.3935 41.1761C49.4162 41.1761 48.6188 40.9678 48.0014 40.5511C47.384 40.1307 47.0052 39.5341 46.8651 38.7614L48.5071 38.5114C48.6094 38.9394 48.8196 39.2633 49.1378 39.483C49.456 39.6989 49.8707 39.8068 50.3821 39.8068C50.9389 39.8068 51.384 39.6913 51.7173 39.4602C52.0507 39.2254 52.2173 38.9394 52.2173 38.6023C52.2173 38.3295 52.1151 38.1004 51.9105 37.9148C51.7098 37.7292 51.401 37.589 50.9844 37.4943L49.5071 37.1705C48.6927 36.9848 48.0904 36.6894 47.7003 36.2841C47.3139 35.8788 47.1207 35.3655 47.1207 34.7443C47.1207 34.2292 47.2647 33.7784 47.5526 33.392C47.8404 33.0057 48.2382 32.7045 48.7457 32.4886C49.2533 32.2689 49.8348 32.1591 50.4901 32.1591C51.4332 32.1591 52.1757 32.3636 52.7173 32.7727C53.259 33.178 53.617 33.7216 53.7912 34.4034ZM55.8295 44.2727V32.2727H57.4886V33.6875H57.6307C57.7292 33.5057 57.8712 33.2955 58.0568 33.0568C58.2424 32.8182 58.5 32.6098 58.8295 32.4318C59.1591 32.25 59.5947 32.1591 60.1364 32.1591C60.8409 32.1591 61.4697 32.3371 62.0227 32.6932C62.5758 33.0492 63.0095 33.5625 63.3239 34.233C63.642 34.9034 63.8011 35.7102 63.8011 36.6534C63.8011 37.5966 63.6439 38.4053 63.3295 39.0795C63.0152 39.75 62.5833 40.267 62.0341 40.6307C61.4848 40.9905 60.858 41.1705 60.1534 41.1705C59.6231 41.1705 59.1894 41.0814 58.8523 40.9034C58.5189 40.7254 58.2576 40.517 58.0682 40.2784C57.8788 40.0398 57.733 39.8277 57.6307 39.642H57.5284V44.2727H55.8295ZM57.4943 36.6364C57.4943 37.25 57.5833 37.7879 57.7614 38.25C57.9394 38.7121 58.197 39.0739 58.5341 39.3352C58.8712 39.5928 59.2841 39.7216 59.7727 39.7216C60.2803 39.7216 60.7045 39.5871 61.0455 39.3182C61.3864 39.0455 61.6439 38.6761 61.8182 38.2102C61.9962 37.7443 62.0852 37.2197 62.0852 36.6364C62.0852 36.0606 61.9981 35.5436 61.8239 35.0852C61.6534 34.6269 61.3958 34.2652 61.0511 34C60.7102 33.7348 60.2841 33.6023 59.7727 33.6023C59.2803 33.6023 58.8636 33.7292 58.5227 33.983C58.1856 34.2367 57.9299 34.5909 57.7557 35.0455C57.5814 35.5 57.4943 36.0303 57.4943 36.6364ZM68.2443 41.1932C67.6913 41.1932 67.1913 41.0909 66.7443 40.8864C66.2973 40.678 65.9432 40.3769 65.6818 39.983C65.4242 39.589 65.2955 39.1061 65.2955 38.5341C65.2955 38.0417 65.3902 37.6364 65.5795 37.3182C65.7689 37 66.0246 36.7481 66.3466 36.5625C66.6686 36.3769 67.0284 36.2367 67.4261 36.142C67.8239 36.0473 68.2292 35.9754 68.642 35.9261C69.1648 35.8655 69.589 35.8163 69.9148 35.7784C70.2405 35.7367 70.4773 35.6705 70.625 35.5795C70.7727 35.4886 70.8466 35.3409 70.8466 35.1364V35.0966C70.8466 34.6004 70.7064 34.2159 70.4261 33.9432C70.1496 33.6705 69.7367 33.5341 69.1875 33.5341C68.6155 33.5341 68.1648 33.661 67.8352 33.9148C67.5095 34.1648 67.2841 34.4432 67.1591 34.75L65.5625 34.3864C65.7519 33.8561 66.0284 33.428 66.392 33.1023C66.7595 32.7727 67.1818 32.5341 67.6591 32.3864C68.1364 32.2348 68.6383 32.1591 69.1648 32.1591C69.5133 32.1591 69.8826 32.2008 70.2727 32.2841C70.6667 32.3636 71.0341 32.5114 71.375 32.7273C71.7197 32.9432 72.0019 33.2519 72.2216 33.6534C72.4413 34.0511 72.5511 34.5682 72.5511 35.2045V41H70.892V39.8068H70.8239C70.714 40.0265 70.5492 40.2424 70.3295 40.4545C70.1098 40.6667 69.8277 40.8428 69.483 40.983C69.1383 41.1231 68.7254 41.1932 68.2443 41.1932ZM68.6136 39.8295C69.0833 39.8295 69.4848 39.7367 69.8182 39.5511C70.1553 39.3655 70.411 39.1231 70.5852 38.8239C70.7633 38.5208 70.8523 38.197 70.8523 37.8523V36.7273C70.7917 36.7879 70.6742 36.8447 70.5 36.8977C70.3295 36.947 70.1345 36.9905 69.9148 37.0284C69.6951 37.0625 69.4811 37.0947 69.2727 37.125C69.0644 37.1515 68.8902 37.1742 68.75 37.1932C68.4205 37.2348 68.1193 37.3049 67.8466 37.4034C67.5777 37.5019 67.3617 37.6439 67.1989 37.8295C67.0398 38.0114 66.9602 38.2538 66.9602 38.5568C66.9602 38.9773 67.1155 39.2955 67.4261 39.5114C67.7367 39.7235 68.1326 39.8295 68.6136 39.8295ZM78.4901 41.1761C77.6454 41.1761 76.9181 40.9848 76.3082 40.6023C75.7022 40.2159 75.2363 39.6837 74.9105 39.0057C74.5848 38.3277 74.4219 37.5511 74.4219 36.6761C74.4219 35.7898 74.5885 35.0076 74.9219 34.3295C75.2552 33.6477 75.7249 33.1155 76.331 32.733C76.937 32.3504 77.651 32.1591 78.473 32.1591C79.1359 32.1591 79.7268 32.2822 80.2457 32.5284C80.7647 32.7708 81.1832 33.1117 81.5014 33.5511C81.8234 33.9905 82.0147 34.5038 82.0753 35.0909H80.4219C80.331 34.6818 80.1226 34.3295 79.7969 34.0341C79.4749 33.7386 79.0431 33.5909 78.5014 33.5909C78.0279 33.5909 77.6132 33.7159 77.2571 33.9659C76.9048 34.2121 76.6302 34.5644 76.4332 35.0227C76.2363 35.4773 76.1378 36.0152 76.1378 36.6364C76.1378 37.2727 76.2344 37.822 76.4276 38.2841C76.6207 38.7462 76.8935 39.1042 77.2457 39.358C77.6018 39.6117 78.0204 39.7386 78.5014 39.7386C78.8234 39.7386 79.1151 39.6799 79.3764 39.5625C79.6416 39.4413 79.8632 39.2689 80.0412 39.0455C80.223 38.822 80.3499 38.553 80.4219 38.2386H82.0753C82.0147 38.803 81.831 39.3068 81.5241 39.75C81.2173 40.1932 80.8063 40.5417 80.2912 40.7955C79.7798 41.0492 79.1795 41.1761 78.4901 41.1761ZM87.6534 41.1761C86.7936 41.1761 86.053 40.9924 85.4318 40.625C84.8144 40.2538 84.3371 39.733 84 39.0625C83.6667 38.3883 83.5 37.5985 83.5 36.6932C83.5 35.7992 83.6667 35.0114 84 34.3295C84.3371 33.6477 84.8068 33.1155 85.4091 32.733C86.0152 32.3504 86.7235 32.1591 87.5341 32.1591C88.0265 32.1591 88.5038 32.2405 88.9659 32.4034C89.428 32.5663 89.8428 32.822 90.2102 33.1705C90.5777 33.5189 90.8674 33.9716 91.0795 34.5284C91.2917 35.0814 91.3977 35.7538 91.3977 36.5455V37.1477H84.4602V35.875H89.733C89.733 35.428 89.642 35.0322 89.4602 34.6875C89.2784 34.339 89.0227 34.0644 88.6932 33.8636C88.3674 33.6629 87.9848 33.5625 87.5455 33.5625C87.0682 33.5625 86.6515 33.6799 86.2955 33.9148C85.9432 34.1458 85.6705 34.4489 85.4773 34.8239C85.2879 35.1951 85.1932 35.5985 85.1932 36.0341V37.0284C85.1932 37.6117 85.2955 38.108 85.5 38.517C85.7083 38.9261 85.9981 39.2386 86.3693 39.4545C86.7405 39.6667 87.1742 39.7727 87.6705 39.7727C87.9924 39.7727 88.286 39.7273 88.5511 39.6364C88.8163 39.5417 89.0455 39.4015 89.2386 39.2159C89.4318 39.0303 89.5795 38.8011 89.6818 38.5284L91.2898 38.8182C91.161 39.2917 90.9299 39.7064 90.5966 40.0625C90.267 40.4148 89.8523 40.6894 89.3523 40.8864C88.8561 41.0795 88.2898 41.1761 87.6534 41.1761Z" fill="#686868"/>
</svg>
