<svg width="53" height="50" viewBox="0 0 53 50" fill="none" xmlns="http://www.w3.org/2000/svg">
<rect width="53" height="50" rx="5" fill="#ECECEC"/>
<path d="M12.3523 39.4091L12.267 40.0284C12.2102 40.483 12.1136 40.9564 11.9773 41.4489C11.8447 41.9451 11.7064 42.4053 11.5625 42.8295C11.4223 43.2538 11.3068 43.5909 11.2159 43.8409H10.0114C10.0606 43.6061 10.1288 43.2879 10.2159 42.8864C10.303 42.4886 10.3883 42.0436 10.4716 41.5511C10.5549 41.0587 10.6174 40.5568 10.6591 40.0455L10.7159 39.4091H12.3523Z" fill="#686868"/>
<path d="M10.5568 17.0568V15.7841L18.1023 12.125V13.858L12.5341 16.3977L12.5852 16.2955V16.5398L12.5341 16.4432L18.1023 18.9773V20.7159L10.5568 17.0568Z" fill="#686868"/>
</svg>
