<svg width="53" height="50" viewBox="0 0 53 50" fill="none" xmlns="http://www.w3.org/2000/svg">
<rect width="53" height="50" rx="5" fill="#ECECEC"/>
<path d="M13.9034 41.1761C13.0436 41.1761 12.303 40.9924 11.6818 40.625C11.0644 40.2538 10.5871 39.733 10.25 39.0625C9.91667 38.3883 9.75 37.5985 9.75 36.6932C9.75 35.7992 9.91667 35.0114 10.25 34.3295C10.5871 33.6477 11.0568 33.1155 11.6591 32.733C12.2652 32.3504 12.9735 32.1591 13.7841 32.1591C14.2765 32.1591 14.7538 32.2405 15.2159 32.4034C15.678 32.5663 16.0928 32.822 16.4602 33.1705C16.8277 33.5189 17.1174 33.9716 17.3295 34.5284C17.5417 35.0814 17.6477 35.7538 17.6477 36.5455V37.1477H10.7102V35.875H15.983C15.983 35.428 15.892 35.0322 15.7102 34.6875C15.5284 34.339 15.2727 34.0644 14.9432 33.8636C14.6174 33.6629 14.2348 33.5625 13.7955 33.5625C13.3182 33.5625 12.9015 33.6799 12.5455 33.9148C12.1932 34.1458 11.9205 34.4489 11.7273 34.8239C11.5379 35.1951 11.4432 35.5985 11.4432 36.0341V37.0284C11.4432 37.6117 11.5455 38.108 11.75 38.517C11.9583 38.9261 12.2481 39.2386 12.6193 39.4545C12.9905 39.6667 13.4242 39.7727 13.9205 39.7727C14.2424 39.7727 14.536 39.7273 14.8011 39.6364C15.0663 39.5417 15.2955 39.4015 15.4886 39.2159C15.6818 39.0303 15.8295 38.8011 15.9318 38.5284L17.5398 38.8182C17.411 39.2917 17.1799 39.7064 16.8466 40.0625C16.517 40.4148 16.1023 40.6894 15.6023 40.8864C15.1061 41.0795 14.5398 41.1761 13.9034 41.1761Z" fill="#686868"/>
</svg>
