<svg width="110" height="50" viewBox="0 0 110 50" fill="none" xmlns="http://www.w3.org/2000/svg">
<rect width="110" height="50" rx="5" fill="#ECECEC"/>
<path d="M13.9034 41.1761C13.0436 41.1761 12.303 40.9924 11.6818 40.625C11.0644 40.2538 10.5871 39.733 10.25 39.0625C9.91667 38.3883 9.75 37.5985 9.75 36.6932C9.75 35.7992 9.91667 35.0114 10.25 34.3295C10.5871 33.6477 11.0568 33.1155 11.6591 32.733C12.2652 32.3504 12.9735 32.1591 13.7841 32.1591C14.2765 32.1591 14.7538 32.2405 15.2159 32.4034C15.678 32.5663 16.0928 32.822 16.4602 33.1705C16.8277 33.5189 17.1174 33.9716 17.3295 34.5284C17.5417 35.0814 17.6477 35.7538 17.6477 36.5455V37.1477H10.7102V35.875H15.983C15.983 35.428 15.892 35.0322 15.7102 34.6875C15.5284 34.339 15.2727 34.0644 14.9432 33.8636C14.6174 33.6629 14.2348 33.5625 13.7955 33.5625C13.3182 33.5625 12.9015 33.6799 12.5455 33.9148C12.1932 34.1458 11.9205 34.4489 11.7273 34.8239C11.5379 35.1951 11.4432 35.5985 11.4432 36.0341V37.0284C11.4432 37.6117 11.5455 38.108 11.75 38.517C11.9583 38.9261 12.2481 39.2386 12.6193 39.4545C12.9905 39.6667 13.4242 39.7727 13.9205 39.7727C14.2424 39.7727 14.536 39.7273 14.8011 39.6364C15.0663 39.5417 15.2955 39.4015 15.4886 39.2159C15.6818 39.0303 15.8295 38.8011 15.9318 38.5284L17.5398 38.8182C17.411 39.2917 17.1799 39.7064 16.8466 40.0625C16.517 40.4148 16.1023 40.6894 15.6023 40.8864C15.1061 41.0795 14.5398 41.1761 13.9034 41.1761ZM21.2315 35.8182V41H19.5327V32.2727H21.1634V33.6932H21.2713C21.4721 33.2311 21.7865 32.8598 22.2145 32.5795C22.6463 32.2992 23.1899 32.1591 23.8452 32.1591C24.4399 32.1591 24.9607 32.2841 25.4077 32.5341C25.8546 32.7803 26.2012 33.1477 26.4474 33.6364C26.6937 34.125 26.8168 34.7292 26.8168 35.4489V41H25.1179V35.6534C25.1179 35.0208 24.9531 34.5265 24.6236 34.1705C24.294 33.8106 23.8414 33.6307 23.2656 33.6307C22.8717 33.6307 22.5213 33.7159 22.2145 33.8864C21.9115 34.0568 21.6709 34.3068 21.4929 34.6364C21.3187 34.9621 21.2315 35.3561 21.2315 35.8182ZM33.169 32.2727V33.6364H28.402V32.2727H33.169ZM29.6804 30.1818H31.3793V38.4375C31.3793 38.767 31.4285 39.0152 31.527 39.1818C31.6255 39.3447 31.7524 39.4564 31.9077 39.517C32.0668 39.5739 32.2391 39.6023 32.4247 39.6023C32.5611 39.6023 32.6804 39.5928 32.7827 39.5739C32.8849 39.5549 32.9645 39.5398 33.0213 39.5284L33.3281 40.9318C33.2296 40.9697 33.0895 41.0076 32.9077 41.0455C32.7259 41.0871 32.4986 41.1098 32.2259 41.1136C31.7789 41.1212 31.3622 41.0417 30.9759 40.875C30.5895 40.7083 30.277 40.4508 30.0384 40.1023C29.7997 39.7538 29.6804 39.3163 29.6804 38.7898V30.1818ZM38.7159 41.1761C37.8561 41.1761 37.1155 40.9924 36.4943 40.625C35.8769 40.2538 35.3996 39.733 35.0625 39.0625C34.7292 38.3883 34.5625 37.5985 34.5625 36.6932C34.5625 35.7992 34.7292 35.0114 35.0625 34.3295C35.3996 33.6477 35.8693 33.1155 36.4716 32.733C37.0777 32.3504 37.786 32.1591 38.5966 32.1591C39.089 32.1591 39.5663 32.2405 40.0284 32.4034C40.4905 32.5663 40.9053 32.822 41.2727 33.1705C41.6402 33.5189 41.9299 33.9716 42.142 34.5284C42.3542 35.0814 42.4602 35.7538 42.4602 36.5455V37.1477H35.5227V35.875H40.7955C40.7955 35.428 40.7045 35.0322 40.5227 34.6875C40.3409 34.339 40.0852 34.0644 39.7557 33.8636C39.4299 33.6629 39.0473 33.5625 38.608 33.5625C38.1307 33.5625 37.714 33.6799 37.358 33.9148C37.0057 34.1458 36.733 34.4489 36.5398 34.8239C36.3504 35.1951 36.2557 35.5985 36.2557 36.0341V37.0284C36.2557 37.6117 36.358 38.108 36.5625 38.517C36.7708 38.9261 37.0606 39.2386 37.4318 39.4545C37.803 39.6667 38.2367 39.7727 38.733 39.7727C39.0549 39.7727 39.3485 39.7273 39.6136 39.6364C39.8788 39.5417 40.108 39.4015 40.3011 39.2159C40.4943 39.0303 40.642 38.8011 40.7443 38.5284L42.3523 38.8182C42.2235 39.2917 41.9924 39.7064 41.6591 40.0625C41.3295 40.4148 40.9148 40.6894 40.4148 40.8864C39.9186 41.0795 39.3523 41.1761 38.7159 41.1761ZM44.3452 41V32.2727H45.9872V33.6591H46.0781C46.2372 33.1894 46.5175 32.8201 46.919 32.5511C47.3243 32.2784 47.7827 32.142 48.294 32.142C48.4001 32.142 48.5251 32.1458 48.669 32.1534C48.8168 32.161 48.9323 32.1705 49.0156 32.1818V33.8068C48.9474 33.7879 48.8262 33.767 48.652 33.7443C48.4777 33.7178 48.3035 33.7045 48.1293 33.7045C47.7277 33.7045 47.3698 33.7898 47.0554 33.9602C46.7448 34.1269 46.4986 34.3598 46.3168 34.6591C46.1349 34.9545 46.044 35.2917 46.044 35.6705V41H44.3452Z" fill="#686868"/>
</svg>
