<svg width="53" height="50" viewBox="0 0 53 50" fill="none" xmlns="http://www.w3.org/2000/svg">
<rect width="53" height="50" rx="5" fill="#ECECEC"/>
<path d="M13.1761 31.108L11.4205 28.4886H13.2102L14.5341 31.108H13.1761Z" fill="#686868"/>
<path d="M10.2841 17.6477C10.2689 16.9924 10.3655 16.4545 10.5739 16.0341C10.786 15.6136 11.0701 15.303 11.4261 15.1023C11.7822 14.8977 12.1742 14.7955 12.6023 14.7955C12.9811 14.7955 13.3314 14.8769 13.6534 15.0398C13.9754 15.1989 14.3428 15.4602 14.7557 15.8239C15.0133 16.0473 15.2235 16.2102 15.3864 16.3125C15.5492 16.411 15.7311 16.4602 15.9318 16.4602C16.2386 16.4602 16.483 16.3466 16.6648 16.1193C16.8504 15.8883 16.9394 15.5473 16.9318 15.0966H18.3693C18.3845 15.7557 18.286 16.2955 18.0739 16.7159C17.8655 17.1364 17.5814 17.447 17.2216 17.6477C16.8655 17.8485 16.4754 17.9489 16.0511 17.9489C15.6686 17.9489 15.3163 17.8674 14.9943 17.7045C14.6723 17.5379 14.3068 17.2765 13.8977 16.9205C13.6326 16.6894 13.4205 16.5265 13.2614 16.4318C13.1023 16.3333 12.9223 16.2841 12.7216 16.2841C12.4299 16.2841 12.1875 16.3902 11.9943 16.6023C11.8049 16.8106 11.714 17.1591 11.7216 17.6477H10.2841Z" fill="#686868"/>
</svg>
