<svg width="53" height="50" viewBox="0 0 53 50" fill="none" xmlns="http://www.w3.org/2000/svg">
<rect width="53" height="50" rx="5" fill="#ECECEC"/>
<path d="M10.142 41V32.2727H11.8409V41H10.142ZM11 30.9261C10.7045 30.9261 10.4508 30.8277 10.2386 30.6307C10.0303 30.4299 9.92614 30.1913 9.92614 29.9148C9.92614 29.6345 10.0303 29.3958 10.2386 29.1989C10.4508 28.9981 10.7045 28.8977 11 28.8977C11.2955 28.8977 11.5473 28.9981 11.7557 29.1989C11.9678 29.3958 12.0739 29.6345 12.0739 29.9148C12.0739 30.1913 11.9678 30.4299 11.7557 30.6307C11.5473 30.8277 11.2955 30.9261 11 30.9261Z" fill="#686868"/>
</svg>
