<svg width="53" height="50" viewBox="0 0 53 50" fill="none" xmlns="http://www.w3.org/2000/svg">
<rect width="53" height="50" rx="5" fill="#ECECEC"/>
<path d="M10.142 32.2727H11.8409V41.5682C11.8409 42.1515 11.7348 42.6439 11.5227 43.0455C11.3144 43.447 11.0038 43.7519 10.5909 43.9602C10.1818 44.1686 9.67614 44.2727 9.07386 44.2727C9.01326 44.2727 8.95644 44.2727 8.90341 44.2727C8.84659 44.2727 8.78788 44.2708 8.72727 44.267V42.8068C8.7803 42.8068 8.82765 42.8068 8.86932 42.8068C8.9072 42.8068 8.95076 42.8068 9 42.8068C9.40152 42.8068 9.69129 42.6989 9.86932 42.483C10.0511 42.2708 10.142 41.9621 10.142 41.5568V32.2727ZM10.983 30.9261C10.6875 30.9261 10.4337 30.8277 10.2216 30.6307C10.0133 30.4299 9.90909 30.1913 9.90909 29.9148C9.90909 29.6345 10.0133 29.3958 10.2216 29.1989C10.4337 28.9981 10.6875 28.8977 10.983 28.8977C11.2784 28.8977 11.5303 28.9981 11.7386 29.1989C11.9508 29.3958 12.0568 29.6345 12.0568 29.9148C12.0568 30.1913 11.9508 30.4299 11.7386 30.6307C11.5303 30.8277 11.2784 30.9261 10.983 30.9261Z" fill="#686868"/>
</svg>
