<svg width="65" height="50" viewBox="0 0 65 50" fill="none" xmlns="http://www.w3.org/2000/svg">
<rect width="65" height="50" rx="5" fill="#ECECEC"/>
<path d="M12.6818 41.1932C12.1288 41.1932 11.6288 41.0909 11.1818 40.8864C10.7348 40.678 10.3807 40.3769 10.1193 39.983C9.86174 39.589 9.73295 39.1061 9.73295 38.5341C9.73295 38.0417 9.82765 37.6364 10.017 37.3182C10.2064 37 10.4621 36.7481 10.7841 36.5625C11.1061 36.3769 11.4659 36.2367 11.8636 36.142C12.2614 36.0473 12.6667 35.9754 13.0795 35.9261C13.6023 35.8655 14.0265 35.8163 14.3523 35.7784C14.678 35.7367 14.9148 35.6705 15.0625 35.5795C15.2102 35.4886 15.2841 35.3409 15.2841 35.1364V35.0966C15.2841 34.6004 15.1439 34.2159 14.8636 33.9432C14.5871 33.6705 14.1742 33.5341 13.625 33.5341C13.053 33.5341 12.6023 33.661 12.2727 33.9148C11.947 34.1648 11.7216 34.4432 11.5966 34.75L10 34.3864C10.1894 33.8561 10.4659 33.428 10.8295 33.1023C11.197 32.7727 11.6193 32.5341 12.0966 32.3864C12.5739 32.2348 13.0758 32.1591 13.6023 32.1591C13.9508 32.1591 14.3201 32.2008 14.7102 32.2841C15.1042 32.3636 15.4716 32.5114 15.8125 32.7273C16.1572 32.9432 16.4394 33.2519 16.6591 33.6534C16.8788 34.0511 16.9886 34.5682 16.9886 35.2045V41H15.3295V39.8068H15.2614C15.1515 40.0265 14.9867 40.2424 14.767 40.4545C14.5473 40.6667 14.2652 40.8428 13.9205 40.983C13.5758 41.1231 13.1629 41.1932 12.6818 41.1932ZM13.0511 39.8295C13.5208 39.8295 13.9223 39.7367 14.2557 39.5511C14.5928 39.3655 14.8485 39.1231 15.0227 38.8239C15.2008 38.5208 15.2898 38.197 15.2898 37.8523V36.7273C15.2292 36.7879 15.1117 36.8447 14.9375 36.8977C14.767 36.947 14.572 36.9905 14.3523 37.0284C14.1326 37.0625 13.9186 37.0947 13.7102 37.125C13.5019 37.1515 13.3277 37.1742 13.1875 37.1932C12.858 37.2348 12.5568 37.3049 12.2841 37.4034C12.0152 37.5019 11.7992 37.6439 11.6364 37.8295C11.4773 38.0114 11.3977 38.2538 11.3977 38.5568C11.3977 38.9773 11.553 39.2955 11.8636 39.5114C12.1742 39.7235 12.5701 39.8295 13.0511 39.8295ZM20.9503 29.3636V41H19.2514V29.3636H20.9503ZM27.3097 32.2727V33.6364H22.5426V32.2727H27.3097ZM23.821 30.1818H25.5199V38.4375C25.5199 38.767 25.5691 39.0152 25.6676 39.1818C25.7661 39.3447 25.893 39.4564 26.0483 39.517C26.2074 39.5739 26.3797 39.6023 26.5653 39.6023C26.7017 39.6023 26.821 39.5928 26.9233 39.5739C27.0256 39.5549 27.1051 39.5398 27.1619 39.5284L27.4688 40.9318C27.3703 40.9697 27.2301 41.0076 27.0483 41.0455C26.8665 41.0871 26.6392 41.1098 26.3665 41.1136C25.9195 41.1212 25.5028 41.0417 25.1165 40.875C24.7301 40.7083 24.4176 40.4508 24.179 40.1023C23.9403 39.7538 23.821 39.3163 23.821 38.7898V30.1818Z" fill="#686868"/>
</svg>
