<svg width="53" height="50" viewBox="0 0 53 50" fill="none" xmlns="http://www.w3.org/2000/svg">
<rect width="53" height="50" rx="5" fill="#ECECEC"/>
<path d="M10.142 41V32.2727H11.7727V33.6932H11.8807C12.0625 33.2121 12.3598 32.8371 12.7727 32.5682C13.1856 32.2955 13.6799 32.1591 14.2557 32.1591C14.839 32.1591 15.3277 32.2955 15.7216 32.5682C16.1193 32.8409 16.4129 33.2159 16.6023 33.6932H16.6932C16.9015 33.2273 17.233 32.8561 17.6875 32.5795C18.142 32.2992 18.6837 32.1591 19.3125 32.1591C20.1042 32.1591 20.75 32.4072 21.25 32.9034C21.7538 33.3996 22.0057 34.1477 22.0057 35.1477V41H20.3068V35.3068C20.3068 34.7159 20.1458 34.2879 19.8239 34.0227C19.5019 33.7576 19.1174 33.625 18.6705 33.625C18.1174 33.625 17.6875 33.7955 17.3807 34.1364C17.0739 34.4735 16.9205 34.9072 16.9205 35.4375V41H15.2273V35.1989C15.2273 34.7254 15.0795 34.3447 14.7841 34.0568C14.4886 33.7689 14.1042 33.625 13.6307 33.625C13.3087 33.625 13.0114 33.7102 12.7386 33.8807C12.4697 34.0473 12.2519 34.2803 12.0852 34.5795C11.9223 34.8788 11.8409 35.2254 11.8409 35.6193V41H10.142Z" fill="#686868"/>
</svg>
