<svg width="53" height="50" viewBox="0 0 53 50" fill="none" xmlns="http://www.w3.org/2000/svg">
<rect width="53" height="50" rx="5" fill="#ECECEC"/>
<path d="M10.142 44.2727V32.2727H11.8011V33.6875H11.9432C12.0417 33.5057 12.1837 33.2955 12.3693 33.0568C12.5549 32.8182 12.8125 32.6098 13.142 32.4318C13.4716 32.25 13.9072 32.1591 14.4489 32.1591C15.1534 32.1591 15.7822 32.3371 16.3352 32.6932C16.8883 33.0492 17.322 33.5625 17.6364 34.233C17.9545 34.9034 18.1136 35.7102 18.1136 36.6534C18.1136 37.5966 17.9564 38.4053 17.642 39.0795C17.3277 39.75 16.8958 40.267 16.3466 40.6307C15.7973 40.9905 15.1705 41.1705 14.4659 41.1705C13.9356 41.1705 13.5019 41.0814 13.1648 40.9034C12.8314 40.7254 12.5701 40.517 12.3807 40.2784C12.1913 40.0398 12.0455 39.8277 11.9432 39.642H11.8409V44.2727H10.142ZM11.8068 36.6364C11.8068 37.25 11.8958 37.7879 12.0739 38.25C12.2519 38.7121 12.5095 39.0739 12.8466 39.3352C13.1837 39.5928 13.5966 39.7216 14.0852 39.7216C14.5928 39.7216 15.017 39.5871 15.358 39.3182C15.6989 39.0455 15.9564 38.6761 16.1307 38.2102C16.3087 37.7443 16.3977 37.2197 16.3977 36.6364C16.3977 36.0606 16.3106 35.5436 16.1364 35.0852C15.9659 34.6269 15.7083 34.2652 15.3636 34C15.0227 33.7348 14.5966 33.6023 14.0852 33.6023C13.5928 33.6023 13.1761 33.7292 12.8352 33.983C12.4981 34.2367 12.2424 34.5909 12.0682 35.0455C11.8939 35.5 11.8068 36.0303 11.8068 36.6364Z" fill="#686868"/>
</svg>
