<svg width="53" height="50" viewBox="0 0 53 50" fill="none" xmlns="http://www.w3.org/2000/svg">
<rect width="53" height="50" rx="5" fill="#ECECEC"/>
<path d="M10.142 41V32.2727H11.7841V33.6591H11.875C12.0341 33.1894 12.3144 32.8201 12.7159 32.5511C13.1212 32.2784 13.5795 32.142 14.0909 32.142C14.197 32.142 14.322 32.1458 14.4659 32.1534C14.6136 32.161 14.7292 32.1705 14.8125 32.1818V33.8068C14.7443 33.7879 14.6231 33.767 14.4489 33.7443C14.2746 33.7178 14.1004 33.7045 13.9261 33.7045C13.5246 33.7045 13.1667 33.7898 12.8523 33.9602C12.5417 34.1269 12.2955 34.3598 12.1136 34.6591C11.9318 34.9545 11.8409 35.2917 11.8409 35.6705V41H10.142Z" fill="#686868"/>
</svg>
