<svg width="133" height="50" viewBox="0 0 133 50" fill="none" xmlns="http://www.w3.org/2000/svg">
<rect width="133" height="50" rx="5" fill="#ECECEC"/>
<path d="M16.6818 34.4034L15.142 34.6761C15.0777 34.4792 14.9754 34.2917 14.8352 34.1136C14.6989 33.9356 14.5133 33.7898 14.2784 33.6761C14.0436 33.5625 13.75 33.5057 13.3977 33.5057C12.9167 33.5057 12.5152 33.6136 12.1932 33.8295C11.8712 34.0417 11.7102 34.3163 11.7102 34.6534C11.7102 34.9451 11.8182 35.1799 12.0341 35.358C12.25 35.536 12.5985 35.6818 13.0795 35.7955L14.4659 36.1136C15.2689 36.2992 15.8674 36.5852 16.2614 36.9716C16.6553 37.358 16.8523 37.8598 16.8523 38.4773C16.8523 39 16.7008 39.4659 16.3977 39.875C16.0985 40.2803 15.6799 40.5985 15.142 40.8295C14.608 41.0606 13.9886 41.1761 13.2841 41.1761C12.3068 41.1761 11.5095 40.9678 10.892 40.5511C10.2746 40.1307 9.89583 39.5341 9.75568 38.7614L11.3977 38.5114C11.5 38.9394 11.7102 39.2633 12.0284 39.483C12.3466 39.6989 12.7614 39.8068 13.2727 39.8068C13.8295 39.8068 14.2746 39.6913 14.608 39.4602C14.9413 39.2254 15.108 38.9394 15.108 38.6023C15.108 38.3295 15.0057 38.1004 14.8011 37.9148C14.6004 37.7292 14.2917 37.589 13.875 37.4943L12.3977 37.1705C11.5833 36.9848 10.9811 36.6894 10.5909 36.2841C10.2045 35.8788 10.0114 35.3655 10.0114 34.7443C10.0114 34.2292 10.1553 33.7784 10.4432 33.392C10.7311 33.0057 11.1288 32.7045 11.6364 32.4886C12.1439 32.2689 12.7254 32.1591 13.3807 32.1591C14.3239 32.1591 15.0663 32.3636 15.608 32.7727C16.1496 33.178 16.5076 33.7216 16.6818 34.4034ZM20.419 35.8182V41H18.7202V29.3636H20.3963V33.6932H20.5043C20.7088 33.2235 21.0213 32.8504 21.4418 32.5739C21.8622 32.2973 22.4115 32.1591 23.0895 32.1591C23.688 32.1591 24.2107 32.2822 24.6577 32.5284C25.1084 32.7746 25.4569 33.142 25.7031 33.6307C25.9531 34.1155 26.0781 34.7216 26.0781 35.4489V41H24.3793V35.6534C24.3793 35.0133 24.2145 34.517 23.8849 34.1648C23.5554 33.8087 23.0971 33.6307 22.5099 33.6307C22.1084 33.6307 21.7486 33.7159 21.4304 33.8864C21.116 34.0568 20.8679 34.3068 20.6861 34.6364C20.508 34.9621 20.419 35.3561 20.419 35.8182ZM28.3452 41V32.2727H30.044V41H28.3452ZM29.2031 30.9261C28.9077 30.9261 28.6539 30.8277 28.4418 30.6307C28.2334 30.4299 28.1293 30.1913 28.1293 29.9148C28.1293 29.6345 28.2334 29.3958 28.4418 29.1989C28.6539 28.9981 28.9077 28.8977 29.2031 28.8977C29.4986 28.8977 29.7505 28.9981 29.9588 29.1989C30.1709 29.3958 30.277 29.6345 30.277 29.9148C30.277 30.1913 30.1709 30.4299 29.9588 30.6307C29.7505 30.8277 29.4986 30.9261 29.2031 30.9261ZM36.483 32.2727V33.6364H31.5511V32.2727H36.483ZM32.9034 41V31.2614C32.9034 30.7159 33.0227 30.2633 33.2614 29.9034C33.5 29.5398 33.8163 29.2689 34.2102 29.0909C34.6042 28.9091 35.0322 28.8182 35.4943 28.8182C35.8352 28.8182 36.1269 28.8466 36.3693 28.9034C36.6117 28.9564 36.7917 29.0057 36.9091 29.0511L36.5114 30.4261C36.4318 30.4034 36.3295 30.3769 36.2045 30.3466C36.0795 30.3125 35.928 30.2955 35.75 30.2955C35.3371 30.2955 35.0417 30.3977 34.8636 30.6023C34.6894 30.8068 34.6023 31.1023 34.6023 31.4886V41H32.9034ZM42.3097 32.2727V33.6364H37.5426V32.2727H42.3097ZM38.821 30.1818H40.5199V38.4375C40.5199 38.767 40.5691 39.0152 40.6676 39.1818C40.7661 39.3447 40.893 39.4564 41.0483 39.517C41.2074 39.5739 41.3797 39.6023 41.5653 39.6023C41.7017 39.6023 41.821 39.5928 41.9233 39.5739C42.0256 39.5549 42.1051 39.5398 42.1619 39.5284L42.4688 40.9318C42.3703 40.9697 42.2301 41.0076 42.0483 41.0455C41.8665 41.0871 41.6392 41.1098 41.3665 41.1136C40.9195 41.1212 40.5028 41.0417 40.1165 40.875C39.7301 40.7083 39.4176 40.4508 39.179 40.1023C38.9403 39.7538 38.821 39.3163 38.821 38.7898V30.1818Z" fill="#686868"/>
</svg>
