<svg width="53" height="50" viewBox="0 0 53 50" fill="none" xmlns="http://www.w3.org/2000/svg">
<rect width="53" height="50" rx="5" fill="#ECECEC"/>
<path d="M16.6818 34.4034L15.142 34.6761C15.0777 34.4792 14.9754 34.2917 14.8352 34.1136C14.6989 33.9356 14.5133 33.7898 14.2784 33.6761C14.0436 33.5625 13.75 33.5057 13.3977 33.5057C12.9167 33.5057 12.5152 33.6136 12.1932 33.8295C11.8712 34.0417 11.7102 34.3163 11.7102 34.6534C11.7102 34.9451 11.8182 35.1799 12.0341 35.358C12.25 35.536 12.5985 35.6818 13.0795 35.7955L14.4659 36.1136C15.2689 36.2992 15.8674 36.5852 16.2614 36.9716C16.6553 37.358 16.8523 37.8598 16.8523 38.4773C16.8523 39 16.7008 39.4659 16.3977 39.875C16.0985 40.2803 15.6799 40.5985 15.142 40.8295C14.608 41.0606 13.9886 41.1761 13.2841 41.1761C12.3068 41.1761 11.5095 40.9678 10.892 40.5511C10.2746 40.1307 9.89583 39.5341 9.75568 38.7614L11.3977 38.5114C11.5 38.9394 11.7102 39.2633 12.0284 39.483C12.3466 39.6989 12.7614 39.8068 13.2727 39.8068C13.8295 39.8068 14.2746 39.6913 14.608 39.4602C14.9413 39.2254 15.108 38.9394 15.108 38.6023C15.108 38.3295 15.0057 38.1004 14.8011 37.9148C14.6004 37.7292 14.2917 37.589 13.875 37.4943L12.3977 37.1705C11.5833 36.9848 10.9811 36.6894 10.5909 36.2841C10.2045 35.8788 10.0114 35.3655 10.0114 34.7443C10.0114 34.2292 10.1553 33.7784 10.4432 33.392C10.7311 33.0057 11.1288 32.7045 11.6364 32.4886C12.1439 32.2689 12.7254 32.1591 13.3807 32.1591C14.3239 32.1591 15.0663 32.3636 15.608 32.7727C16.1496 33.178 16.5076 33.7216 16.6818 34.4034Z" fill="#686868"/>
</svg>
