<svg width="53" height="50" viewBox="0 0 53 50" fill="none" xmlns="http://www.w3.org/2000/svg">
<rect width="53" height="50" rx="5" fill="#ECECEC"/>
<path d="M14.5739 28.8182L10.8239 42.75H9.30682L13.0568 28.8182H14.5739Z" fill="#686868"/>
<path d="M12 17.6534V17.5455C12.0076 16.8409 12.0777 16.2803 12.2102 15.8636C12.3466 15.447 12.5398 15.1098 12.7898 14.8523C13.0398 14.5947 13.3409 14.3598 13.6932 14.1477C13.9205 14.0038 14.125 13.8428 14.3068 13.6648C14.4886 13.4867 14.6326 13.2822 14.7386 13.0511C14.8447 12.8201 14.8977 12.5644 14.8977 12.2841C14.8977 11.947 14.8182 11.6553 14.6591 11.4091C14.5 11.1629 14.2879 10.9735 14.0227 10.8409C13.7614 10.7045 13.4697 10.6364 13.1477 10.6364C12.8561 10.6364 12.5777 10.697 12.3125 10.8182C12.0473 10.9394 11.8277 11.1288 11.6534 11.3864C11.4792 11.6402 11.3788 11.9678 11.3523 12.3693H9.625C9.65152 11.6875 9.82386 11.1117 10.142 10.642C10.4602 10.1686 10.8807 9.81061 11.4034 9.56818C11.9299 9.32576 12.5114 9.20455 13.1477 9.20455C13.8447 9.20455 14.4545 9.33523 14.9773 9.59659C15.5 9.85417 15.9053 10.2159 16.1932 10.6818C16.4848 11.1439 16.6307 11.6837 16.6307 12.3011C16.6307 12.7254 16.5644 13.108 16.4318 13.4489C16.2992 13.786 16.1098 14.0871 15.8636 14.3523C15.6212 14.6174 15.3295 14.8523 14.9886 15.0568C14.6667 15.2576 14.4053 15.4659 14.2045 15.6818C14.0076 15.8977 13.8636 16.1534 13.7727 16.4489C13.6818 16.7443 13.6326 17.1098 13.625 17.5455V17.6534H12ZM12.858 21.108C12.5473 21.108 12.2803 20.9981 12.0568 20.7784C11.8333 20.5549 11.7216 20.286 11.7216 19.9716C11.7216 19.661 11.8333 19.3958 12.0568 19.1761C12.2803 18.9527 12.5473 18.8409 12.858 18.8409C13.1648 18.8409 13.4299 18.9527 13.6534 19.1761C13.8807 19.3958 13.9943 19.661 13.9943 19.9716C13.9943 20.1799 13.9413 20.3712 13.8352 20.5455C13.733 20.7159 13.5966 20.8523 13.4261 20.9545C13.2557 21.0568 13.0663 21.108 12.858 21.108Z" fill="#686868"/>
</svg>
