<svg width="53" height="50" viewBox="0 0 53 50" fill="none" xmlns="http://www.w3.org/2000/svg">
<rect width="53" height="50" rx="5" fill="#ECECEC"/>
<path d="M14.2159 32.2727V33.6364H9.44886V32.2727H14.2159ZM10.7273 30.1818H12.4261V38.4375C12.4261 38.767 12.4754 39.0152 12.5739 39.1818C12.6723 39.3447 12.7992 39.4564 12.9545 39.517C13.1136 39.5739 13.286 39.6023 13.4716 39.6023C13.608 39.6023 13.7273 39.5928 13.8295 39.5739C13.9318 39.5549 14.0114 39.5398 14.0682 39.5284L14.375 40.9318C14.2765 40.9697 14.1364 41.0076 13.9545 41.0455C13.7727 41.0871 13.5455 41.1098 13.2727 41.1136C12.8258 41.1212 12.4091 41.0417 12.0227 40.875C11.6364 40.7083 11.3239 40.4508 11.0852 40.1023C10.8466 39.7538 10.7273 39.3163 10.7273 38.7898V30.1818Z" fill="#686868"/>
</svg>
