<svg width="80" height="50" viewBox="0 0 80 50" fill="none" xmlns="http://www.w3.org/2000/svg">
<rect width="80" height="50" rx="5" fill="#ECECEC"/>
<path d="M14.2159 32.2727V33.6364H9.44886V32.2727H14.2159ZM10.7273 30.1818H12.4261V38.4375C12.4261 38.767 12.4754 39.0152 12.5739 39.1818C12.6723 39.3447 12.7992 39.4564 12.9545 39.517C13.1136 39.5739 13.286 39.6023 13.4716 39.6023C13.608 39.6023 13.7273 39.5928 13.8295 39.5739C13.9318 39.5549 14.0114 39.5398 14.0682 39.5284L14.375 40.9318C14.2765 40.9697 14.1364 41.0076 13.9545 41.0455C13.7727 41.0871 13.5455 41.1098 13.2727 41.1136C12.8258 41.1212 12.4091 41.0417 12.0227 40.875C11.6364 40.7083 11.3239 40.4508 11.0852 40.1023C10.8466 39.7538 10.7273 39.3163 10.7273 38.7898V30.1818ZM18.6349 41.1932C18.0819 41.1932 17.5819 41.0909 17.1349 40.8864C16.688 40.678 16.3338 40.3769 16.0724 39.983C15.8149 39.589 15.6861 39.1061 15.6861 38.5341C15.6861 38.0417 15.7808 37.6364 15.9702 37.3182C16.1596 37 16.4152 36.7481 16.7372 36.5625C17.0592 36.3769 17.419 36.2367 17.8168 36.142C18.2145 36.0473 18.6198 35.9754 19.0327 35.9261C19.5554 35.8655 19.9796 35.8163 20.3054 35.7784C20.6312 35.7367 20.8679 35.6705 21.0156 35.5795C21.1634 35.4886 21.2372 35.3409 21.2372 35.1364V35.0966C21.2372 34.6004 21.0971 34.2159 20.8168 33.9432C20.5402 33.6705 20.1274 33.5341 19.5781 33.5341C19.0062 33.5341 18.5554 33.661 18.2259 33.9148C17.9001 34.1648 17.6747 34.4432 17.5497 34.75L15.9531 34.3864C16.1425 33.8561 16.419 33.428 16.7827 33.1023C17.1501 32.7727 17.5724 32.5341 18.0497 32.3864C18.527 32.2348 19.0289 32.1591 19.5554 32.1591C19.9039 32.1591 20.2732 32.2008 20.6634 32.2841C21.0573 32.3636 21.4247 32.5114 21.7656 32.7273C22.1103 32.9432 22.3925 33.2519 22.6122 33.6534C22.8319 34.0511 22.9418 34.5682 22.9418 35.2045V41H21.2827V39.8068H21.2145C21.1046 40.0265 20.9399 40.2424 20.7202 40.4545C20.5005 40.6667 20.2183 40.8428 19.8736 40.983C19.5289 41.1231 19.116 41.1932 18.6349 41.1932ZM19.0043 39.8295C19.474 39.8295 19.8755 39.7367 20.2088 39.5511C20.5459 39.3655 20.8016 39.1231 20.9759 38.8239C21.1539 38.5208 21.2429 38.197 21.2429 37.8523V36.7273C21.1823 36.7879 21.0649 36.8447 20.8906 36.8977C20.7202 36.947 20.5251 36.9905 20.3054 37.0284C20.0857 37.0625 19.8717 37.0947 19.6634 37.125C19.455 37.1515 19.2808 37.1742 19.1406 37.1932C18.8111 37.2348 18.5099 37.3049 18.2372 37.4034C17.9683 37.5019 17.7524 37.6439 17.5895 37.8295C17.4304 38.0114 17.3509 38.2538 17.3509 38.5568C17.3509 38.9773 17.5062 39.2955 17.8168 39.5114C18.1274 39.7235 18.5232 39.8295 19.0043 39.8295ZM25.3409 41V29.3636H27.0398V33.6875H27.142C27.2405 33.5057 27.3826 33.2955 27.5682 33.0568C27.7538 32.8182 28.0114 32.6098 28.3409 32.4318C28.6705 32.25 29.1061 32.1591 29.6477 32.1591C30.3523 32.1591 30.9811 32.3371 31.5341 32.6932C32.0871 33.0492 32.5208 33.5625 32.8352 34.233C33.1534 34.9034 33.3125 35.7102 33.3125 36.6534C33.3125 37.5966 33.1553 38.4053 32.8409 39.0795C32.5265 39.75 32.0947 40.267 31.5455 40.6307C30.9962 40.9905 30.3693 41.1705 29.6648 41.1705C29.1345 41.1705 28.7008 41.0814 28.3636 40.9034C28.0303 40.7254 27.7689 40.517 27.5795 40.2784C27.3902 40.0398 27.2443 39.8277 27.142 39.642H27V41H25.3409ZM27.0057 36.6364C27.0057 37.25 27.0947 37.7879 27.2727 38.25C27.4508 38.7121 27.7083 39.0739 28.0455 39.3352C28.3826 39.5928 28.7955 39.7216 29.2841 39.7216C29.7917 39.7216 30.2159 39.5871 30.5568 39.3182C30.8977 39.0455 31.1553 38.6761 31.3295 38.2102C31.5076 37.7443 31.5966 37.2197 31.5966 36.6364C31.5966 36.0606 31.5095 35.5436 31.3352 35.0852C31.1648 34.6269 30.9072 34.2652 30.5625 34C30.2216 33.7348 29.7955 33.6023 29.2841 33.6023C28.7917 33.6023 28.375 33.7292 28.0341 33.983C27.697 34.2367 27.4413 34.5909 27.267 35.0455C27.0928 35.5 27.0057 36.0303 27.0057 36.6364Z" fill="#686868"/>
</svg>
