<svg width="53" height="50" viewBox="0 0 53 50" fill="none" xmlns="http://www.w3.org/2000/svg">
<rect width="53" height="50" rx="5" fill="#ECECEC"/>
<path d="M11.2159 44.2727C10.9621 44.2727 10.7311 44.2519 10.5227 44.2102C10.3144 44.1723 10.1591 44.1307 10.0568 44.0852L10.4659 42.6932C10.7765 42.7765 11.053 42.8125 11.2955 42.8011C11.5379 42.7898 11.7519 42.6989 11.9375 42.5284C12.1269 42.358 12.2936 42.0795 12.4375 41.6932L12.6477 41.1136L9.45455 32.2727H11.2727L13.483 39.0455H13.5739L15.7841 32.2727H17.608L14.0114 42.1648C13.8447 42.6193 13.6326 43.0038 13.375 43.3182C13.1174 43.6364 12.8106 43.875 12.4545 44.0341C12.0985 44.1932 11.6856 44.2727 11.2159 44.2727Z" fill="#686868"/>
</svg>
