<svg width="53" height="50" viewBox="0 0 53 50" fill="none" xmlns="http://www.w3.org/2000/svg">
<rect width="53" height="50" rx="5" fill="#C9C9C9"/>
<path d="M9.875 38.7273V37.3068L14.9034 29.3636H16.0227V31.4545H15.3125L11.7159 37.1477V37.2386H18.608V38.7273H9.875ZM15.392 41V38.2955L15.4034 37.6477V29.3636H17.0682V41H15.392Z" fill="#686868"/>
<path d="M13.7102 22.4545V7.90909H14.642V22.4545H13.7102ZM16.625 12.4205C16.5644 11.8826 16.3144 11.4659 15.875 11.1705C15.4356 10.8712 14.8826 10.7216 14.2159 10.7216C13.7386 10.7216 13.3258 10.7973 12.9773 10.9489C12.6288 11.0966 12.358 11.3011 12.1648 11.5625C11.9754 11.8201 11.8807 12.1136 11.8807 12.4432C11.8807 12.7197 11.9451 12.9583 12.0739 13.1591C12.2064 13.3598 12.3788 13.5284 12.5909 13.6648C12.8068 13.7973 13.0379 13.9091 13.2841 14C13.5303 14.0871 13.767 14.1591 13.9943 14.2159L15.1307 14.5114C15.5019 14.6023 15.8826 14.7254 16.2727 14.8807C16.6629 15.036 17.0246 15.2405 17.358 15.4943C17.6913 15.7481 17.9602 16.0625 18.1648 16.4375C18.3731 16.8125 18.4773 17.2614 18.4773 17.7841C18.4773 18.4432 18.3068 19.0284 17.9659 19.5398C17.6288 20.0511 17.1383 20.4545 16.4943 20.75C15.8542 21.0455 15.0795 21.1932 14.1705 21.1932C13.2992 21.1932 12.5455 21.0549 11.9091 20.7784C11.2727 20.5019 10.7746 20.1098 10.4148 19.6023C10.0549 19.0909 9.85606 18.4848 9.81818 17.7841H11.5795C11.6136 18.2045 11.75 18.5549 11.9886 18.8352C12.2311 19.1117 12.5398 19.3182 12.9148 19.4545C13.2936 19.5871 13.7083 19.6534 14.1591 19.6534C14.6553 19.6534 15.0966 19.5758 15.483 19.4205C15.8731 19.2614 16.1799 19.0417 16.4034 18.7614C16.6269 18.4773 16.7386 18.1458 16.7386 17.767C16.7386 17.4223 16.6402 17.1402 16.4432 16.9205C16.25 16.7008 15.9867 16.5189 15.6534 16.375C15.3239 16.2311 14.9508 16.1042 14.5341 15.9943L13.1591 15.6193C12.2273 15.3655 11.4886 14.9924 10.9432 14.5C10.4015 14.0076 10.1307 13.3561 10.1307 12.5455C10.1307 11.875 10.3125 11.2898 10.6761 10.7898C11.0398 10.2898 11.5322 9.90151 12.1534 9.625C12.7746 9.3447 13.4754 9.20455 14.2557 9.20455C15.0436 9.20455 15.7386 9.3428 16.3409 9.61932C16.947 9.89583 17.4242 10.2765 17.7727 10.7614C18.1212 11.2424 18.303 11.7955 18.3182 12.4205H16.625Z" fill="#686868"/>
</svg>
