<svg width="53" height="50" viewBox="0 0 53 50" fill="none" xmlns="http://www.w3.org/2000/svg">
<rect width="53" height="50" rx="5" fill="#C9C9C9"/>
<path d="M14.0511 41.1591C13.2367 41.1591 12.517 41.0189 11.892 40.7386C11.2708 40.4583 10.7841 40.072 10.4318 39.5795C10.0795 39.0871 9.9053 38.5265 9.90909 37.8977C9.9053 37.4053 10.0057 36.9527 10.2102 36.5398C10.4186 36.1231 10.7008 35.7765 11.0568 35.5C11.4129 35.2197 11.8106 35.0417 12.25 34.9659V34.8977C11.6705 34.7576 11.2064 34.447 10.858 33.9659C10.5095 33.4848 10.3371 32.9318 10.3409 32.3068C10.3371 31.7121 10.4943 31.1818 10.8125 30.7159C11.1345 30.2462 11.5758 29.8769 12.1364 29.608C12.697 29.339 13.3352 29.2045 14.0511 29.2045C14.7595 29.2045 15.392 29.3409 15.9489 29.6136C16.5095 29.8826 16.9508 30.2519 17.2727 30.7216C17.5947 31.1875 17.7576 31.7159 17.7614 32.3068C17.7576 32.9318 17.5795 33.4848 17.2273 33.9659C16.875 34.447 16.4167 34.7576 15.8523 34.8977V34.9659C16.2879 35.0417 16.6799 35.2197 17.0284 35.5C17.3807 35.7765 17.661 36.1231 17.8693 36.5398C18.0814 36.9527 18.1894 37.4053 18.1932 37.8977C18.1894 38.5265 18.0114 39.0871 17.6591 39.5795C17.3068 40.072 16.8182 40.4583 16.1932 40.7386C15.572 41.0189 14.858 41.1591 14.0511 41.1591ZM14.0511 39.7216C14.5322 39.7216 14.9489 39.642 15.3011 39.483C15.6534 39.3201 15.9261 39.0947 16.1193 38.8068C16.3125 38.5152 16.411 38.1742 16.4148 37.7841C16.411 37.3788 16.3049 37.0208 16.0966 36.7102C15.892 36.3996 15.6136 36.1553 15.2614 35.9773C14.9091 35.7992 14.5057 35.7102 14.0511 35.7102C13.5928 35.7102 13.1856 35.7992 12.8295 35.9773C12.4735 36.1553 12.1932 36.3996 11.9886 36.7102C11.7841 37.0208 11.6837 37.3788 11.6875 37.7841C11.6837 38.1742 11.7765 38.5152 11.9659 38.8068C12.1591 39.0947 12.4337 39.3201 12.7898 39.483C13.1458 39.642 13.5663 39.7216 14.0511 39.7216ZM14.0511 34.3068C14.4375 34.3068 14.7803 34.2292 15.0795 34.0739C15.3788 33.9186 15.6136 33.7027 15.7841 33.4261C15.9583 33.1496 16.0473 32.8258 16.0511 32.4545C16.0473 32.0909 15.9602 31.7727 15.7898 31.5C15.6231 31.2273 15.3902 31.017 15.0909 30.8693C14.7917 30.7178 14.4451 30.642 14.0511 30.642C13.6496 30.642 13.2973 30.7178 12.9943 30.8693C12.6951 31.017 12.4621 31.2273 12.2955 31.5C12.1288 31.7727 12.0473 32.0909 12.0511 32.4545C12.0473 32.8258 12.1307 33.1496 12.3011 33.4261C12.4716 33.7027 12.7064 33.9186 13.0057 34.0739C13.3087 34.2292 13.6572 34.3068 14.0511 34.3068Z" fill="#686868"/>
<path d="M12.5568 15.9091L12.6648 13.5114L10.642 14.8125L10.0227 13.733L12.1705 12.6364L10.0227 11.5398L10.642 10.4602L12.6648 11.7614L12.5568 9.36364H13.7898L13.6818 11.7614L15.7045 10.4602L16.3239 11.5398L14.1761 12.6364L16.3239 13.733L15.7045 14.8125L13.6818 13.5114L13.7898 15.9091H12.5568Z" fill="#686868"/>
</svg>
