<svg width="53" height="50" viewBox="0 0 53 50" fill="none" xmlns="http://www.w3.org/2000/svg">
<rect width="53" height="50" rx="5" fill="#C9C9C9"/>
<path d="M13.9886 29.2045C14.5076 29.2083 15.0189 29.303 15.5227 29.4886C16.0265 29.6742 16.4811 29.9773 16.8864 30.3977C17.2955 30.8182 17.6212 31.3864 17.8636 32.1023C18.1098 32.8144 18.2348 33.7008 18.2386 34.7614C18.2386 35.7803 18.1364 36.6875 17.9318 37.483C17.7273 38.2746 17.4337 38.9432 17.0511 39.4886C16.6723 40.0341 16.2121 40.4489 15.6705 40.733C15.1288 41.017 14.5189 41.1591 13.8409 41.1591C13.1477 41.1591 12.5322 41.0227 11.9943 40.75C11.4564 40.4773 11.0189 40.1004 10.6818 39.6193C10.3447 39.1345 10.1345 38.5777 10.0511 37.9489H11.7841C11.8977 38.4489 12.1288 38.8542 12.4773 39.1648C12.8295 39.4716 13.2841 39.625 13.8409 39.625C14.6932 39.625 15.358 39.2538 15.8352 38.5114C16.3125 37.7652 16.553 36.7235 16.5568 35.3864H16.4659C16.2689 35.7121 16.0227 35.9924 15.7273 36.2273C15.4356 36.4621 15.108 36.6439 14.7443 36.7727C14.3807 36.9015 13.9924 36.9659 13.5795 36.9659C12.9091 36.9659 12.2992 36.8011 11.75 36.4716C11.2008 36.142 10.7633 35.6894 10.4375 35.1136C10.1117 34.5379 9.94886 33.8807 9.94886 33.142C9.94886 32.4072 10.1155 31.7405 10.4489 31.142C10.786 30.5436 11.2557 30.0701 11.858 29.7216C12.464 29.3693 13.1742 29.197 13.9886 29.2045ZM13.9943 30.6818C13.5511 30.6818 13.1515 30.7917 12.7955 31.0114C12.4432 31.2273 12.1648 31.5208 11.9602 31.892C11.7557 32.2595 11.6534 32.6686 11.6534 33.1193C11.6534 33.5701 11.7519 33.9792 11.9489 34.3466C12.1496 34.7102 12.4223 35 12.767 35.2159C13.1155 35.428 13.5133 35.5341 13.9602 35.5341C14.2936 35.5341 14.6042 35.4697 14.892 35.3409C15.1799 35.2121 15.4318 35.0341 15.6477 34.8068C15.8636 34.5758 16.0322 34.3144 16.1534 34.0227C16.2746 33.7311 16.3352 33.4242 16.3352 33.1023C16.3352 32.6742 16.233 32.2765 16.0284 31.9091C15.8277 31.5417 15.5511 31.2462 15.1989 31.0227C14.8466 30.7955 14.4451 30.6818 13.9943 30.6818Z" fill="#686868"/>
<path d="M10.6364 16.1705C10.6364 14.7462 10.8239 13.4356 11.1989 12.2386C11.5739 11.0417 12.1212 9.9375 12.8409 8.92614H14.3977C14.1174 9.30114 13.8561 9.76136 13.6136 10.3068C13.3712 10.8523 13.1591 11.4508 12.9773 12.1023C12.7955 12.75 12.6534 13.4223 12.5511 14.1193C12.4489 14.8125 12.3977 15.4962 12.3977 16.1705C12.3977 17.072 12.4867 17.9848 12.6648 18.9091C12.8428 19.8333 13.0833 20.6913 13.3864 21.483C13.6894 22.2746 14.0265 22.9205 14.3977 23.4205H12.8409C12.1212 22.4091 11.5739 21.3049 11.1989 20.108C10.8239 18.911 10.6364 17.5985 10.6364 16.1705Z" fill="#686868"/>
</svg>
