<svg width="100" height="50" viewBox="0 0 100 50" fill="none" xmlns="http://www.w3.org/2000/svg">
<rect width="100" height="50" rx="5" fill="#C9C9C9"/>
<path d="M13.8182 41.1761C12.9735 41.1761 12.2462 40.9848 11.6364 40.6023C11.0303 40.2159 10.5644 39.6837 10.2386 39.0057C9.91288 38.3277 9.75 37.5511 9.75 36.6761C9.75 35.7898 9.91667 35.0076 10.25 34.3295C10.5833 33.6477 11.053 33.1155 11.6591 32.733C12.2652 32.3504 12.9792 32.1591 13.8011 32.1591C14.464 32.1591 15.0549 32.2822 15.5739 32.5284C16.0928 32.7708 16.5114 33.1117 16.8295 33.5511C17.1515 33.9905 17.3428 34.5038 17.4034 35.0909H15.75C15.6591 34.6818 15.4508 34.3295 15.125 34.0341C14.803 33.7386 14.3712 33.5909 13.8295 33.5909C13.3561 33.5909 12.9413 33.7159 12.5852 33.9659C12.233 34.2121 11.9583 34.5644 11.7614 35.0227C11.5644 35.4773 11.4659 36.0152 11.4659 36.6364C11.4659 37.2727 11.5625 37.822 11.7557 38.2841C11.9489 38.7462 12.2216 39.1042 12.5739 39.358C12.9299 39.6117 13.3485 39.7386 13.8295 39.7386C14.1515 39.7386 14.4432 39.6799 14.7045 39.5625C14.9697 39.4413 15.1913 39.2689 15.3693 39.0455C15.5511 38.822 15.678 38.553 15.75 38.2386H17.4034C17.3428 38.803 17.1591 39.3068 16.8523 39.75C16.5455 40.1932 16.1345 40.5417 15.6193 40.7955C15.108 41.0492 14.5076 41.1761 13.8182 41.1761ZM21.7599 41.1932C21.2069 41.1932 20.7069 41.0909 20.2599 40.8864C19.813 40.678 19.4588 40.3769 19.1974 39.983C18.9399 39.589 18.8111 39.1061 18.8111 38.5341C18.8111 38.0417 18.9058 37.6364 19.0952 37.3182C19.2846 37 19.5402 36.7481 19.8622 36.5625C20.1842 36.3769 20.544 36.2367 20.9418 36.142C21.3395 36.0473 21.7448 35.9754 22.1577 35.9261C22.6804 35.8655 23.1046 35.8163 23.4304 35.7784C23.7562 35.7367 23.9929 35.6705 24.1406 35.5795C24.2884 35.4886 24.3622 35.3409 24.3622 35.1364V35.0966C24.3622 34.6004 24.2221 34.2159 23.9418 33.9432C23.6652 33.6705 23.2524 33.5341 22.7031 33.5341C22.1312 33.5341 21.6804 33.661 21.3509 33.9148C21.0251 34.1648 20.7997 34.4432 20.6747 34.75L19.0781 34.3864C19.2675 33.8561 19.544 33.428 19.9077 33.1023C20.2751 32.7727 20.6974 32.5341 21.1747 32.3864C21.652 32.2348 22.1539 32.1591 22.6804 32.1591C23.0289 32.1591 23.3982 32.2008 23.7884 32.2841C24.1823 32.3636 24.5497 32.5114 24.8906 32.7273C25.2353 32.9432 25.5175 33.2519 25.7372 33.6534C25.9569 34.0511 26.0668 34.5682 26.0668 35.2045V41H24.4077V39.8068H24.3395C24.2296 40.0265 24.0649 40.2424 23.8452 40.4545C23.6255 40.6667 23.3433 40.8428 22.9986 40.983C22.6539 41.1231 22.241 41.1932 21.7599 41.1932ZM22.1293 39.8295C22.599 39.8295 23.0005 39.7367 23.3338 39.5511C23.6709 39.3655 23.9266 39.1231 24.1009 38.8239C24.2789 38.5208 24.3679 38.197 24.3679 37.8523V36.7273C24.3073 36.7879 24.1899 36.8447 24.0156 36.8977C23.8452 36.947 23.6501 36.9905 23.4304 37.0284C23.2107 37.0625 22.9967 37.0947 22.7884 37.125C22.58 37.1515 22.4058 37.1742 22.2656 37.1932C21.9361 37.2348 21.6349 37.3049 21.3622 37.4034C21.0933 37.5019 20.8774 37.6439 20.7145 37.8295C20.5554 38.0114 20.4759 38.2538 20.4759 38.5568C20.4759 38.9773 20.6312 39.2955 20.9418 39.5114C21.2524 39.7235 21.6482 39.8295 22.1293 39.8295ZM28.3295 44.2727V32.2727H29.9886V33.6875H30.1307C30.2292 33.5057 30.3712 33.2955 30.5568 33.0568C30.7424 32.8182 31 32.6098 31.3295 32.4318C31.6591 32.25 32.0947 32.1591 32.6364 32.1591C33.3409 32.1591 33.9697 32.3371 34.5227 32.6932C35.0758 33.0492 35.5095 33.5625 35.8239 34.233C36.142 34.9034 36.3011 35.7102 36.3011 36.6534C36.3011 37.5966 36.1439 38.4053 35.8295 39.0795C35.5152 39.75 35.0833 40.267 34.5341 40.6307C33.9848 40.9905 33.358 41.1705 32.6534 41.1705C32.1231 41.1705 31.6894 41.0814 31.3523 40.9034C31.0189 40.7254 30.7576 40.517 30.5682 40.2784C30.3788 40.0398 30.233 39.8277 30.1307 39.642H30.0284V44.2727H28.3295ZM29.9943 36.6364C29.9943 37.25 30.0833 37.7879 30.2614 38.25C30.4394 38.7121 30.697 39.0739 31.0341 39.3352C31.3712 39.5928 31.7841 39.7216 32.2727 39.7216C32.7803 39.7216 33.2045 39.5871 33.5455 39.3182C33.8864 39.0455 34.1439 38.6761 34.3182 38.2102C34.4962 37.7443 34.5852 37.2197 34.5852 36.6364C34.5852 36.0606 34.4981 35.5436 34.3239 35.0852C34.1534 34.6269 33.8958 34.2652 33.5511 34C33.2102 33.7348 32.7841 33.6023 32.2727 33.6023C31.7803 33.6023 31.3636 33.7292 31.0227 33.983C30.6856 34.2367 30.4299 34.5909 30.2557 35.0455C30.0814 35.5 29.9943 36.0303 29.9943 36.6364ZM44.7443 34.4034L43.2045 34.6761C43.1402 34.4792 43.0379 34.2917 42.8977 34.1136C42.7614 33.9356 42.5758 33.7898 42.3409 33.6761C42.1061 33.5625 41.8125 33.5057 41.4602 33.5057C40.9792 33.5057 40.5777 33.6136 40.2557 33.8295C39.9337 34.0417 39.7727 34.3163 39.7727 34.6534C39.7727 34.9451 39.8807 35.1799 40.0966 35.358C40.3125 35.536 40.661 35.6818 41.142 35.7955L42.5284 36.1136C43.3314 36.2992 43.9299 36.5852 44.3239 36.9716C44.7178 37.358 44.9148 37.8598 44.9148 38.4773C44.9148 39 44.7633 39.4659 44.4602 39.875C44.161 40.2803 43.7424 40.5985 43.2045 40.8295C42.6705 41.0606 42.0511 41.1761 41.3466 41.1761C40.3693 41.1761 39.572 40.9678 38.9545 40.5511C38.3371 40.1307 37.9583 39.5341 37.8182 38.7614L39.4602 38.5114C39.5625 38.9394 39.7727 39.2633 40.0909 39.483C40.4091 39.6989 40.8239 39.8068 41.3352 39.8068C41.892 39.8068 42.3371 39.6913 42.6705 39.4602C43.0038 39.2254 43.1705 38.9394 43.1705 38.6023C43.1705 38.3295 43.0682 38.1004 42.8636 37.9148C42.6629 37.7292 42.3542 37.589 41.9375 37.4943L40.4602 37.1705C39.6458 36.9848 39.0436 36.6894 38.6534 36.2841C38.267 35.8788 38.0739 35.3655 38.0739 34.7443C38.0739 34.2292 38.2178 33.7784 38.5057 33.392C38.7936 33.0057 39.1913 32.7045 39.6989 32.4886C40.2064 32.2689 40.7879 32.1591 41.4432 32.1591C42.3864 32.1591 43.1288 32.3636 43.6705 32.7727C44.2121 33.178 44.5701 33.7216 44.7443 34.4034ZM52.7159 29.3636V41H51.017V29.3636H52.7159ZM58.6776 41.1761C57.8594 41.1761 57.1454 40.9886 56.5355 40.6136C55.9257 40.2386 55.4522 39.714 55.1151 39.0398C54.7779 38.3655 54.6094 37.5777 54.6094 36.6761C54.6094 35.7708 54.7779 34.9792 55.1151 34.3011C55.4522 33.6231 55.9257 33.0966 56.5355 32.7216C57.1454 32.3466 57.8594 32.1591 58.6776 32.1591C59.4957 32.1591 60.2098 32.3466 60.8196 32.7216C61.4295 33.0966 61.9029 33.6231 62.2401 34.3011C62.5772 34.9792 62.7457 35.7708 62.7457 36.6761C62.7457 37.5777 62.5772 38.3655 62.2401 39.0398C61.9029 39.714 61.4295 40.2386 60.8196 40.6136C60.2098 40.9886 59.4957 41.1761 58.6776 41.1761ZM58.6832 39.75C59.2135 39.75 59.6529 39.6098 60.0014 39.3295C60.3499 39.0492 60.6075 38.6761 60.7741 38.2102C60.9446 37.7443 61.0298 37.2311 61.0298 36.6705C61.0298 36.1136 60.9446 35.6023 60.7741 35.1364C60.6075 34.6667 60.3499 34.2898 60.0014 34.0057C59.6529 33.7216 59.2135 33.5795 58.6832 33.5795C58.1491 33.5795 57.706 33.7216 57.3537 34.0057C57.0052 34.2898 56.7457 34.6667 56.5753 35.1364C56.4086 35.6023 56.3253 36.1136 56.3253 36.6705C56.3253 37.2311 56.4086 37.7443 56.5753 38.2102C56.7457 38.6761 57.0052 39.0492 57.3537 39.3295C57.706 39.6098 58.1491 39.75 58.6832 39.75ZM68.3182 41.1761C67.4735 41.1761 66.7462 40.9848 66.1364 40.6023C65.5303 40.2159 65.0644 39.6837 64.7386 39.0057C64.4129 38.3277 64.25 37.5511 64.25 36.6761C64.25 35.7898 64.4167 35.0076 64.75 34.3295C65.0833 33.6477 65.553 33.1155 66.1591 32.733C66.7652 32.3504 67.4792 32.1591 68.3011 32.1591C68.964 32.1591 69.5549 32.2822 70.0739 32.5284C70.5928 32.7708 71.0114 33.1117 71.3295 33.5511C71.6515 33.9905 71.8428 34.5038 71.9034 35.0909H70.25C70.1591 34.6818 69.9508 34.3295 69.625 34.0341C69.303 33.7386 68.8712 33.5909 68.3295 33.5909C67.8561 33.5909 67.4413 33.7159 67.0852 33.9659C66.733 34.2121 66.4583 34.5644 66.2614 35.0227C66.0644 35.4773 65.9659 36.0152 65.9659 36.6364C65.9659 37.2727 66.0625 37.822 66.2557 38.2841C66.4489 38.7462 66.7216 39.1042 67.0739 39.358C67.4299 39.6117 67.8485 39.7386 68.3295 39.7386C68.6515 39.7386 68.9432 39.6799 69.2045 39.5625C69.4697 39.4413 69.6913 39.2689 69.8693 39.0455C70.0511 38.822 70.178 38.553 70.25 38.2386H71.9034C71.8428 38.803 71.6591 39.3068 71.3523 39.75C71.0455 40.1932 70.6345 40.5417 70.1193 40.7955C69.608 41.0492 69.0076 41.1761 68.3182 41.1761ZM75.2827 38.0398L75.2713 35.9659H75.5668L79.044 32.2727H81.0781L77.1122 36.4773H76.8452L75.2827 38.0398ZM73.7202 41V29.3636H75.419V41H73.7202ZM79.2315 41L76.1065 36.8523L77.277 35.6648L81.3168 41H79.2315Z" fill="#686868"/>
</svg>
