<svg width="53" height="50" viewBox="0 0 53 50" fill="none" xmlns="http://www.w3.org/2000/svg">
<rect width="53" height="50" rx="5" fill="#C9C9C9"/>
<path d="M13.4091 41.1705C12.7045 41.1705 12.0758 40.9905 11.5227 40.6307C10.9735 40.267 10.5417 39.75 10.2273 39.0795C9.91667 38.4053 9.76136 37.5966 9.76136 36.6534C9.76136 35.7102 9.91856 34.9034 10.233 34.233C10.5511 33.5625 10.9867 33.0492 11.5398 32.6932C12.0928 32.3371 12.7197 32.1591 13.4205 32.1591C13.9621 32.1591 14.3977 32.25 14.7273 32.4318C15.0606 32.6098 15.3182 32.8182 15.5 33.0568C15.6856 33.2955 15.8295 33.5057 15.9318 33.6875H16.0341V29.3636H17.733V41H16.0739V39.642H15.9318C15.8295 39.8277 15.6818 40.0398 15.4886 40.2784C15.2992 40.517 15.0379 40.7254 14.7045 40.9034C14.3712 41.0814 13.9394 41.1705 13.4091 41.1705ZM13.7841 39.7216C14.2727 39.7216 14.6856 39.5928 15.0227 39.3352C15.3636 39.0739 15.6212 38.7121 15.7955 38.25C15.9735 37.7879 16.0625 37.25 16.0625 36.6364C16.0625 36.0303 15.9754 35.5 15.8011 35.0455C15.6269 34.5909 15.3712 34.2367 15.0341 33.983C14.697 33.7292 14.2803 33.6023 13.7841 33.6023C13.2727 33.6023 12.8466 33.7348 12.5057 34C12.1648 34.2652 11.9072 34.6269 11.733 35.0852C11.5625 35.5436 11.4773 36.0606 11.4773 36.6364C11.4773 37.2197 11.5644 37.7443 11.7386 38.2102C11.9129 38.6761 12.1705 39.0455 12.5114 39.3182C12.8561 39.5871 13.2803 39.7216 13.7841 39.7216Z" fill="#686868"/>
</svg>
