<svg width="65" height="50" viewBox="0 0 65 50" fill="none" xmlns="http://www.w3.org/2000/svg">
<rect width="65" height="50" rx="5" fill="#C9C9C9"/>
<path d="M13.4091 41.1705C12.7045 41.1705 12.0758 40.9905 11.5227 40.6307C10.9735 40.267 10.5417 39.75 10.2273 39.0795C9.91667 38.4053 9.76136 37.5966 9.76136 36.6534C9.76136 35.7102 9.91856 34.9034 10.233 34.233C10.5511 33.5625 10.9867 33.0492 11.5398 32.6932C12.0928 32.3371 12.7197 32.1591 13.4205 32.1591C13.9621 32.1591 14.3977 32.25 14.7273 32.4318C15.0606 32.6098 15.3182 32.8182 15.5 33.0568C15.6856 33.2955 15.8295 33.5057 15.9318 33.6875H16.0341V29.3636H17.733V41H16.0739V39.642H15.9318C15.8295 39.8277 15.6818 40.0398 15.4886 40.2784C15.2992 40.517 15.0379 40.7254 14.7045 40.9034C14.3712 41.0814 13.9394 41.1705 13.4091 41.1705ZM13.7841 39.7216C14.2727 39.7216 14.6856 39.5928 15.0227 39.3352C15.3636 39.0739 15.6212 38.7121 15.7955 38.25C15.9735 37.7879 16.0625 37.25 16.0625 36.6364C16.0625 36.0303 15.9754 35.5 15.8011 35.0455C15.6269 34.5909 15.3712 34.2367 15.0341 33.983C14.697 33.7292 14.2803 33.6023 13.7841 33.6023C13.2727 33.6023 12.8466 33.7348 12.5057 34C12.1648 34.2652 11.9072 34.6269 11.733 35.0852C11.5625 35.5436 11.4773 36.0606 11.4773 36.6364C11.4773 37.2197 11.5644 37.7443 11.7386 38.2102C11.9129 38.6761 12.1705 39.0455 12.5114 39.3182C12.8561 39.5871 13.2803 39.7216 13.7841 39.7216ZM23.919 41.1761C23.0592 41.1761 22.3187 40.9924 21.6974 40.625C21.08 40.2538 20.6027 39.733 20.2656 39.0625C19.9323 38.3883 19.7656 37.5985 19.7656 36.6932C19.7656 35.7992 19.9323 35.0114 20.2656 34.3295C20.6027 33.6477 21.0724 33.1155 21.6747 32.733C22.2808 32.3504 22.9891 32.1591 23.7997 32.1591C24.2921 32.1591 24.7694 32.2405 25.2315 32.4034C25.6937 32.5663 26.1084 32.822 26.4759 33.1705C26.8433 33.5189 27.133 33.9716 27.3452 34.5284C27.5573 35.0814 27.6634 35.7538 27.6634 36.5455V37.1477H20.7259V35.875H25.9986C25.9986 35.428 25.9077 35.0322 25.7259 34.6875C25.544 34.339 25.2884 34.0644 24.9588 33.8636C24.633 33.6629 24.2505 33.5625 23.8111 33.5625C23.3338 33.5625 22.9171 33.6799 22.5611 33.9148C22.2088 34.1458 21.9361 34.4489 21.7429 34.8239C21.5535 35.1951 21.4588 35.5985 21.4588 36.0341V37.0284C21.4588 37.6117 21.5611 38.108 21.7656 38.517C21.974 38.9261 22.2637 39.2386 22.6349 39.4545C23.0062 39.6667 23.4399 39.7727 23.9361 39.7727C24.258 39.7727 24.5516 39.7273 24.8168 39.6364C25.0819 39.5417 25.3111 39.4015 25.5043 39.2159C25.6974 39.0303 25.8452 38.8011 25.9474 38.5284L27.5554 38.8182C27.4266 39.2917 27.1955 39.7064 26.8622 40.0625C26.5327 40.4148 26.1179 40.6894 25.6179 40.8864C25.1217 41.0795 24.5554 41.1761 23.919 41.1761ZM31.2472 29.3636V41H29.5483V29.3636H31.2472Z" fill="#686868"/>
</svg>
