<svg width="53" height="50" viewBox="0 0 53 50" fill="none" xmlns="http://www.w3.org/2000/svg">
<rect width="53" height="50" rx="5" fill="#C9C9C9"/>
<path d="M11.2614 41.108C10.9508 41.108 10.6837 40.9981 10.4602 40.7784C10.2367 40.5549 10.125 40.286 10.125 39.9716C10.125 39.661 10.2367 39.3958 10.4602 39.1761C10.6837 38.9527 10.9508 38.8409 11.2614 38.8409C11.572 38.8409 11.839 38.9527 12.0625 39.1761C12.286 39.3958 12.3977 39.661 12.3977 39.9716C12.3977 40.1799 12.3447 40.3712 12.2386 40.5455C12.1364 40.7159 12 40.8523 11.8295 40.9545C11.6591 41.0568 11.4697 41.108 11.2614 41.108Z" fill="#686868"/>
<path d="M18.1023 17.0568L10.5568 20.7159V18.9773L16.125 16.4432L16.0682 16.5398V16.2955L16.125 16.3977L10.5568 13.858V12.125L18.1023 15.7841V17.0568Z" fill="#686868"/>
</svg>
