<svg width="53" height="50" viewBox="0 0 53 50" fill="none" xmlns="http://www.w3.org/2000/svg">
<rect width="53" height="50" rx="5" fill="#C9C9C9"/>
<path d="M14.2955 32.2727V33.6364H9.36364V32.2727H14.2955ZM10.7159 41V31.2614C10.7159 30.7159 10.8352 30.2633 11.0739 29.9034C11.3125 29.5398 11.6288 29.2689 12.0227 29.0909C12.4167 28.9091 12.8447 28.8182 13.3068 28.8182C13.6477 28.8182 13.9394 28.8466 14.1818 28.9034C14.4242 28.9564 14.6042 29.0057 14.7216 29.0511L14.3239 30.4261C14.2443 30.4034 14.142 30.3769 14.017 30.3466C13.892 30.3125 13.7405 30.2955 13.5625 30.2955C13.1496 30.2955 12.8542 30.3977 12.6761 30.6023C12.5019 30.8068 12.4148 31.1023 12.4148 31.4886V41H10.7159Z" fill="#686868"/>
</svg>
