<svg width="53" height="50" viewBox="0 0 53 50" fill="none" xmlns="http://www.w3.org/2000/svg">
<rect width="53" height="50" rx="5" fill="#C9C9C9"/>
<path d="M13.8011 44.4545C13.108 44.4545 12.5114 44.3636 12.0114 44.1818C11.5152 44 11.1098 43.7595 10.7955 43.4602C10.4811 43.161 10.2462 42.8333 10.0909 42.4773L11.5511 41.875C11.6534 42.0417 11.7898 42.2178 11.9602 42.4034C12.1345 42.5928 12.3693 42.7538 12.6648 42.8864C12.964 43.0189 13.3485 43.0852 13.8182 43.0852C14.4621 43.0852 14.9943 42.928 15.4148 42.6136C15.8352 42.303 16.0455 41.8068 16.0455 41.125V39.4091H15.9375C15.8352 39.5947 15.6875 39.8011 15.4943 40.0284C15.3049 40.2557 15.0436 40.4527 14.7102 40.6193C14.3769 40.786 13.9432 40.8693 13.4091 40.8693C12.7197 40.8693 12.0985 40.7083 11.5455 40.3864C10.9962 40.0606 10.5606 39.5814 10.2386 38.9489C9.92045 38.3125 9.76136 37.5303 9.76136 36.6023C9.76136 35.6742 9.91856 34.8788 10.233 34.2159C10.5511 33.553 10.9867 33.0455 11.5398 32.6932C12.0928 32.3371 12.7197 32.1591 13.4205 32.1591C13.9621 32.1591 14.3996 32.25 14.733 32.4318C15.0663 32.6098 15.3258 32.8182 15.5114 33.0568C15.7008 33.2955 15.8466 33.5057 15.9489 33.6875H16.0739V32.2727H17.7386V41.1932C17.7386 41.9432 17.5644 42.5587 17.2159 43.0398C16.8674 43.5208 16.3958 43.8769 15.8011 44.108C15.2102 44.339 14.5436 44.4545 13.8011 44.4545ZM13.7841 39.4602C14.2727 39.4602 14.6856 39.3466 15.0227 39.1193C15.3636 38.8883 15.6212 38.5587 15.7955 38.1307C15.9735 37.6989 16.0625 37.1818 16.0625 36.5795C16.0625 35.9924 15.9754 35.4754 15.8011 35.0284C15.6269 34.5814 15.3712 34.233 15.0341 33.983C14.697 33.7292 14.2803 33.6023 13.7841 33.6023C13.2727 33.6023 12.8466 33.7348 12.5057 34C12.1648 34.2614 11.9072 34.6174 11.733 35.0682C11.5625 35.5189 11.4773 36.0227 11.4773 36.5795C11.4773 37.1515 11.5644 37.6534 11.7386 38.0852C11.9129 38.517 12.1705 38.8542 12.5114 39.0966C12.8561 39.339 13.2803 39.4602 13.7841 39.4602Z" fill="#686868"/>
</svg>
