<svg width="53" height="50" viewBox="0 0 53 50" fill="none" xmlns="http://www.w3.org/2000/svg">
<rect width="53" height="50" rx="5" fill="#C9C9C9"/>
<path d="M11.8409 35.8182V41H10.142V29.3636H11.8182V33.6932H11.9261C12.1307 33.2235 12.4432 32.8504 12.8636 32.5739C13.2841 32.2973 13.8333 32.1591 14.5114 32.1591C15.1098 32.1591 15.6326 32.2822 16.0795 32.5284C16.5303 32.7746 16.8788 33.142 17.125 33.6307C17.375 34.1155 17.5 34.7216 17.5 35.4489V41H15.8011V35.6534C15.8011 35.0133 15.6364 34.517 15.3068 34.1648C14.9773 33.8087 14.5189 33.6307 13.9318 33.6307C13.5303 33.6307 13.1705 33.7159 12.8523 33.8864C12.5379 34.0568 12.2898 34.3068 12.108 34.6364C11.9299 34.9621 11.8409 35.3561 11.8409 35.8182Z" fill="#686868"/>
</svg>
