<svg width="53" height="50" viewBox="0 0 53 50" fill="none" xmlns="http://www.w3.org/2000/svg">
<rect width="53" height="50" rx="5" fill="#C9C9C9"/>
<path d="M10.8239 43.4205V28.9261H14.5568V30.2727H12.4489V42.0739H14.5568V43.4205H10.8239Z" fill="#686868"/>
<path d="M9.55682 16.2045V15.3523C10.197 15.3523 10.6439 15.2216 10.8977 14.9602C11.1515 14.6951 11.2784 14.2576 11.2784 13.6477V12.017C11.2784 11.4375 11.3428 10.9508 11.4716 10.5568C11.6042 10.1591 11.8049 9.84091 12.0739 9.60227C12.3428 9.36364 12.6837 9.19129 13.0966 9.08523C13.5095 8.97917 13.9962 8.92614 14.5568 8.92614V10.2727C14.1174 10.2727 13.7746 10.3371 13.5284 10.4659C13.2822 10.5947 13.1098 10.7955 13.0114 11.0682C12.9167 11.3371 12.8693 11.6818 12.8693 12.1023V14.1705C12.8693 14.4621 12.8258 14.733 12.7386 14.983C12.6515 15.2292 12.4905 15.4432 12.2557 15.625C12.0208 15.8068 11.6856 15.9489 11.25 16.0511C10.8144 16.1534 10.25 16.2045 9.55682 16.2045ZM14.5568 23.4205C13.9962 23.4205 13.5095 23.3674 13.0966 23.2614C12.6837 23.1553 12.3428 22.983 12.0739 22.7443C11.8049 22.5057 11.6042 22.1875 11.4716 21.7898C11.3428 21.3958 11.2784 20.9091 11.2784 20.3295V18.6932C11.2784 18.0871 11.1515 17.6515 10.8977 17.3864C10.6439 17.1212 10.197 16.9886 9.55682 16.9886V16.142C10.25 16.142 10.8144 16.1932 11.25 16.2955C11.6856 16.3939 12.0208 16.536 12.2557 16.7216C12.4905 16.9034 12.6515 17.1193 12.7386 17.3693C12.8258 17.6155 12.8693 17.8845 12.8693 18.1761V20.2443C12.8693 20.661 12.9167 21.0038 13.0114 21.2727C13.1098 21.5455 13.2822 21.7462 13.5284 21.875C13.7746 22.0076 14.1174 22.0739 14.5568 22.0739V23.4205ZM9.55682 16.9886V15.3523H11.1307V16.9886H9.55682Z" fill="#686868"/>
</svg>
