<svg width="65" height="50" viewBox="0 0 65 50" fill="none" xmlns="http://www.w3.org/2000/svg">
<rect width="65" height="50" rx="5" fill="#C9C9C9"/>
<path d="M13.8182 41.1761C12.9735 41.1761 12.2462 40.9848 11.6364 40.6023C11.0303 40.2159 10.5644 39.6837 10.2386 39.0057C9.91288 38.3277 9.75 37.5511 9.75 36.6761C9.75 35.7898 9.91667 35.0076 10.25 34.3295C10.5833 33.6477 11.053 33.1155 11.6591 32.733C12.2652 32.3504 12.9792 32.1591 13.8011 32.1591C14.464 32.1591 15.0549 32.2822 15.5739 32.5284C16.0928 32.7708 16.5114 33.1117 16.8295 33.5511C17.1515 33.9905 17.3428 34.5038 17.4034 35.0909H15.75C15.6591 34.6818 15.4508 34.3295 15.125 34.0341C14.803 33.7386 14.3712 33.5909 13.8295 33.5909C13.3561 33.5909 12.9413 33.7159 12.5852 33.9659C12.233 34.2121 11.9583 34.5644 11.7614 35.0227C11.5644 35.4773 11.4659 36.0152 11.4659 36.6364C11.4659 37.2727 11.5625 37.822 11.7557 38.2841C11.9489 38.7462 12.2216 39.1042 12.5739 39.358C12.9299 39.6117 13.3485 39.7386 13.8295 39.7386C14.1515 39.7386 14.4432 39.6799 14.7045 39.5625C14.9697 39.4413 15.1913 39.2689 15.3693 39.0455C15.5511 38.822 15.678 38.553 15.75 38.2386H17.4034C17.3428 38.803 17.1591 39.3068 16.8523 39.75C16.5455 40.1932 16.1345 40.5417 15.6193 40.7955C15.108 41.0492 14.5076 41.1761 13.8182 41.1761ZM23.294 32.2727V33.6364H18.527V32.2727H23.294ZM19.8054 30.1818H21.5043V38.4375C21.5043 38.767 21.5535 39.0152 21.652 39.1818C21.7505 39.3447 21.8774 39.4564 22.0327 39.517C22.1918 39.5739 22.3641 39.6023 22.5497 39.6023C22.6861 39.6023 22.8054 39.5928 22.9077 39.5739C23.0099 39.5549 23.0895 39.5398 23.1463 39.5284L23.4531 40.9318C23.3546 40.9697 23.2145 41.0076 23.0327 41.0455C22.8509 41.0871 22.6236 41.1098 22.3509 41.1136C21.9039 41.1212 21.4872 41.0417 21.1009 40.875C20.7145 40.7083 20.402 40.4508 20.1634 40.1023C19.9247 39.7538 19.8054 39.3163 19.8054 38.7898V30.1818ZM25.1733 41V32.2727H26.8153V33.6591H26.9062C27.0653 33.1894 27.3456 32.8201 27.7472 32.5511C28.1525 32.2784 28.6108 32.142 29.1222 32.142C29.2282 32.142 29.3532 32.1458 29.4972 32.1534C29.6449 32.161 29.7604 32.1705 29.8438 32.1818V33.8068C29.7756 33.7879 29.6544 33.767 29.4801 33.7443C29.3059 33.7178 29.1316 33.7045 28.9574 33.7045C28.5559 33.7045 28.1979 33.7898 27.8835 33.9602C27.5729 34.1269 27.3267 34.3598 27.1449 34.6591C26.9631 34.9545 26.8722 35.2917 26.8722 35.6705V41H25.1733ZM33.0128 29.3636V41H31.3139V29.3636H33.0128Z" fill="#686868"/>
</svg>
