<svg width="53" height="50" viewBox="0 0 53 50" fill="none" xmlns="http://www.w3.org/2000/svg">
<rect width="53" height="50" rx="5" fill="#C9C9C9"/>
<path d="M11.8409 35.8182V41H10.142V32.2727H11.7727V33.6932H11.8807C12.0814 33.2311 12.3958 32.8598 12.8239 32.5795C13.2557 32.2992 13.7992 32.1591 14.4545 32.1591C15.0492 32.1591 15.5701 32.2841 16.017 32.5341C16.464 32.7803 16.8106 33.1477 17.0568 33.6364C17.303 34.125 17.4261 34.7292 17.4261 35.4489V41H15.7273V35.6534C15.7273 35.0208 15.5625 34.5265 15.233 34.1705C14.9034 33.8106 14.4508 33.6307 13.875 33.6307C13.4811 33.6307 13.1307 33.7159 12.8239 33.8864C12.5208 34.0568 12.2803 34.3068 12.1023 34.6364C11.928 34.9621 11.8409 35.3561 11.8409 35.8182Z" fill="#686868"/>
</svg>
