<svg width="53" height="50" viewBox="0 0 53 50" fill="none" xmlns="http://www.w3.org/2000/svg">
<rect width="53" height="50" rx="5" fill="#C9C9C9"/>
<path d="M13.8182 41.1761C13 41.1761 12.286 40.9886 11.6761 40.6136C11.0663 40.2386 10.5928 39.714 10.2557 39.0398C9.91856 38.3655 9.75 37.5777 9.75 36.6761C9.75 35.7708 9.91856 34.9792 10.2557 34.3011C10.5928 33.6231 11.0663 33.0966 11.6761 32.7216C12.286 32.3466 13 32.1591 13.8182 32.1591C14.6364 32.1591 15.3504 32.3466 15.9602 32.7216C16.5701 33.0966 17.0436 33.6231 17.3807 34.3011C17.7178 34.9792 17.8864 35.7708 17.8864 36.6761C17.8864 37.5777 17.7178 38.3655 17.3807 39.0398C17.0436 39.714 16.5701 40.2386 15.9602 40.6136C15.3504 40.9886 14.6364 41.1761 13.8182 41.1761ZM13.8239 39.75C14.3542 39.75 14.7936 39.6098 15.142 39.3295C15.4905 39.0492 15.7481 38.6761 15.9148 38.2102C16.0852 37.7443 16.1705 37.2311 16.1705 36.6705C16.1705 36.1136 16.0852 35.6023 15.9148 35.1364C15.7481 34.6667 15.4905 34.2898 15.142 34.0057C14.7936 33.7216 14.3542 33.5795 13.8239 33.5795C13.2898 33.5795 12.8466 33.7216 12.4943 34.0057C12.1458 34.2898 11.8864 34.6667 11.7159 35.1364C11.5492 35.6023 11.4659 36.1136 11.4659 36.6705C11.4659 37.2311 11.5492 37.7443 11.7159 38.2102C11.8864 38.6761 12.1458 39.0492 12.4943 39.3295C12.8466 39.6098 13.2898 39.75 13.8239 39.75Z" fill="#686868"/>
</svg>
