<svg width="53" height="50" viewBox="0 0 53 50" fill="none" xmlns="http://www.w3.org/2000/svg">
<rect width="53" height="50" rx="5" fill="#C9C9C9"/>
<path d="M13.2216 28.9261V43.4205H9.48864V42.0739H11.5966V30.2727H9.48864V28.9261H13.2216Z" fill="#686868"/>
<path d="M14.4886 16.142V16.9886C13.8485 16.9886 13.4015 17.1212 13.1477 17.3864C12.8939 17.6515 12.767 18.0871 12.767 18.6932V20.3295C12.767 20.9091 12.7008 21.3958 12.5682 21.7898C12.4394 22.1875 12.2405 22.5057 11.9716 22.7443C11.7027 22.983 11.3617 23.1553 10.9489 23.2614C10.536 23.3674 10.0492 23.4205 9.48864 23.4205V22.0739C9.92803 22.0739 10.2708 22.0076 10.517 21.875C10.7633 21.7462 10.9337 21.5455 11.0284 21.2727C11.1269 21.0038 11.1761 20.661 11.1761 20.2443V18.1761C11.1761 17.8845 11.2197 17.6155 11.3068 17.3693C11.3939 17.1193 11.5549 16.9034 11.7898 16.7216C12.0246 16.536 12.3598 16.3939 12.7955 16.2955C13.2311 16.1932 13.7955 16.142 14.4886 16.142ZM9.48864 8.92614C10.0492 8.92614 10.536 8.97917 10.9489 9.08523C11.3617 9.19129 11.7027 9.36364 11.9716 9.60227C12.2405 9.84091 12.4394 10.1591 12.5682 10.5568C12.7008 10.9508 12.767 11.4375 12.767 12.017V13.6477C12.767 14.2576 12.8939 14.6951 13.1477 14.9602C13.4015 15.2216 13.8485 15.3523 14.4886 15.3523V16.2045C13.7955 16.2045 13.2311 16.1534 12.7955 16.0511C12.3598 15.9489 12.0246 15.8068 11.7898 15.625C11.5549 15.4432 11.3939 15.2292 11.3068 14.983C11.2197 14.733 11.1761 14.4621 11.1761 14.1705V12.1023C11.1761 11.6818 11.1269 11.3371 11.0284 11.0682C10.9337 10.7955 10.7633 10.5947 10.517 10.4659C10.2708 10.3371 9.92803 10.2727 9.48864 10.2727V8.92614ZM14.4886 15.3523V16.9886H12.9148V15.3523H14.4886Z" fill="#686868"/>
</svg>
