<svg width="65" height="50" viewBox="0 0 65 50" fill="none" xmlns="http://www.w3.org/2000/svg">
<rect width="65" height="50" rx="5" fill="#C9C9C9"/>
<path d="M12.0341 41L9.46591 32.2727H11.2216L12.9318 38.6818H13.017L14.733 32.2727H16.4886L18.1932 38.6534H18.2784L19.9773 32.2727H21.733L19.1705 41H17.4375L15.6648 34.6989H15.5341L13.7614 41H12.0341ZM23.3452 41V32.2727H25.044V41H23.3452ZM24.2031 30.9261C23.9077 30.9261 23.6539 30.8277 23.4418 30.6307C23.2334 30.4299 23.1293 30.1913 23.1293 29.9148C23.1293 29.6345 23.2334 29.3958 23.4418 29.1989C23.6539 28.9981 23.9077 28.8977 24.2031 28.8977C24.4986 28.8977 24.7505 28.9981 24.9588 29.1989C25.1709 29.3958 25.277 29.6345 25.277 29.9148C25.277 30.1913 25.1709 30.4299 24.9588 30.6307C24.7505 30.8277 24.4986 30.9261 24.2031 30.9261ZM29.0284 35.8182V41H27.3295V32.2727H28.9602V33.6932H29.0682C29.2689 33.2311 29.5833 32.8598 30.0114 32.5795C30.4432 32.2992 30.9867 32.1591 31.642 32.1591C32.2367 32.1591 32.7576 32.2841 33.2045 32.5341C33.6515 32.7803 33.9981 33.1477 34.2443 33.6364C34.4905 34.125 34.6136 34.7292 34.6136 35.4489V41H32.9148V35.6534C32.9148 35.0208 32.75 34.5265 32.4205 34.1705C32.0909 33.8106 31.6383 33.6307 31.0625 33.6307C30.6686 33.6307 30.3182 33.7159 30.0114 33.8864C29.7083 34.0568 29.4678 34.3068 29.2898 34.6364C29.1155 34.9621 29.0284 35.3561 29.0284 35.8182Z" fill="#686868"/>
</svg>
