<svg width="53" height="50" viewBox="0 0 53 50" fill="none" xmlns="http://www.w3.org/2000/svg">
<rect width="53" height="50" rx="5" fill="#C9C9C9"/>
<path d="M12.3523 39.4091L12.267 40.0284C12.2102 40.483 12.1136 40.9564 11.9773 41.4489C11.8447 41.9451 11.7064 42.4053 11.5625 42.8295C11.4223 43.2538 11.3068 43.5909 11.2159 43.8409H10.0114C10.0606 43.6061 10.1288 43.2879 10.2159 42.8864C10.303 42.4886 10.3883 42.0436 10.4716 41.5511C10.5549 41.0587 10.6174 40.5568 10.6591 40.0455L10.7159 39.4091H12.3523ZM11.4659 34.7557C11.1553 34.7557 10.8883 34.6439 10.6648 34.4205C10.4413 34.197 10.3295 33.9299 10.3295 33.6193C10.3295 33.3087 10.4413 33.0436 10.6648 32.8239C10.8883 32.6004 11.1553 32.4886 11.4659 32.4886C11.7765 32.4886 12.0436 32.6004 12.267 32.8239C12.4905 33.0436 12.6023 33.3087 12.6023 33.6193C12.6023 33.8277 12.5492 34.0189 12.4432 34.1932C12.3409 34.3636 12.2045 34.5 12.0341 34.6023C11.8636 34.7045 11.6742 34.7557 11.4659 34.7557Z" fill="#686868"/>
<path d="M11.2614 21.108C10.9508 21.108 10.6837 20.9981 10.4602 20.7784C10.2367 20.5549 10.125 20.286 10.125 19.9716C10.125 19.661 10.2367 19.3958 10.4602 19.1761C10.6837 18.9527 10.9508 18.8409 11.2614 18.8409C11.572 18.8409 11.839 18.9527 12.0625 19.1761C12.286 19.3958 12.3977 19.661 12.3977 19.9716C12.3977 20.1799 12.3447 20.3712 12.2386 20.5455C12.1364 20.7159 12 20.8523 11.8295 20.9545C11.6591 21.0568 11.4697 21.108 11.2614 21.108ZM11.2614 14.7557C10.9508 14.7557 10.6837 14.6439 10.4602 14.4205C10.2367 14.197 10.125 13.9299 10.125 13.6193C10.125 13.3087 10.2367 13.0436 10.4602 12.8239C10.6837 12.6004 10.9508 12.4886 11.2614 12.4886C11.572 12.4886 11.839 12.6004 12.0625 12.8239C12.286 13.0436 12.3977 13.3087 12.3977 13.6193C12.3977 13.8277 12.3447 14.0189 12.2386 14.1932C12.1364 14.3636 12 14.5 11.8295 14.6023C11.6591 14.7045 11.4697 14.7557 11.2614 14.7557Z" fill="#686868"/>
</svg>
