<svg width="53" height="50" viewBox="0 0 53 50" fill="none" xmlns="http://www.w3.org/2000/svg">
<rect width="53" height="50" rx="5" fill="#C9C9C9"/>
<path d="M15.6705 37.3807V32.2727H17.375V41H15.7045V39.4886H15.6136C15.4129 39.9545 15.0909 40.3428 14.6477 40.6534C14.2083 40.9602 13.661 41.1136 13.0057 41.1136C12.4451 41.1136 11.9489 40.9905 11.517 40.7443C11.089 40.4943 10.7519 40.125 10.5057 39.6364C10.2633 39.1477 10.142 38.5436 10.142 37.8239V32.2727H11.8409V37.6193C11.8409 38.214 12.0057 38.6875 12.3352 39.0398C12.6648 39.392 13.0928 39.5682 13.6193 39.5682C13.9375 39.5682 14.2538 39.4886 14.5682 39.3295C14.8864 39.1705 15.1496 38.9299 15.358 38.608C15.5701 38.286 15.6742 37.8769 15.6705 37.3807Z" fill="#686868"/>
</svg>
